<?xml version="1.0" encoding="UTF-8"?>
<svg version="1.1" xmlns="http://www.w3.org/2000/svg" width="2196" height="726">
<path d="M0 0 C6.8566313 -0.18948725 13.19474842 0.47057404 19.9375 1.6875 C20.94530518 1.86829102 21.95311035 2.04908203 22.99145508 2.23535156 C48.67313521 7.00483546 74.02246511 15.66412261 94 33 C94.83144531 33.68707031 95.66289063 34.37414062 96.51953125 35.08203125 C113.85160896 49.85822653 125.16946721 72.28783393 127 95 C129.56101093 146.30990379 105.29259284 191.84494665 74 231 C73.24074219 231.95261719 72.48148438 232.90523437 71.69921875 233.88671875 C66.6683544 240.11664921 61.40411 246.0931821 56 252 C55.20335937 252.88945312 54.40671875 253.77890625 53.5859375 254.6953125 C47.99025676 260.89958692 42.20984842 266.89397964 36.3125 272.8125 C35.61189453 273.51769775 34.91128906 274.22289551 34.18945312 274.94946289 C30.18235175 278.94478421 26.07361667 282.76156081 21.78833008 286.45678711 C19.54990485 288.38840293 17.36959834 290.38015703 15.1875 292.375 C9.93801145 297.10513275 4.51631394 301.58548951 -1 306 C-1.50982422 306.40943848 -2.01964844 306.81887695 -2.54492188 307.24072266 C-6.66147485 310.53975945 -10.81798075 313.78441813 -15 317 C-15.66402832 317.51127441 -16.32805664 318.02254883 -17.01220703 318.54931641 C-37.90805816 334.53310138 -60.21898673 348.86148869 -83 362 C-83.91007812 362.52835449 -84.82015625 363.05670898 -85.7578125 363.60107422 C-110.01526847 377.63002408 -135.01912703 390.46823598 -161 401 C-162.52110048 401.63086667 -164.04193491 402.26237522 -165.5625 402.89453125 C-170.68039076 405.00307204 -175.83490517 407.01033312 -181 409 C-182.13824219 409.44214844 -183.27648437 409.88429688 -184.44921875 410.33984375 C-206.56278066 418.89286142 -229.00481192 425.57890947 -251.96203613 431.47521973 C-253.73620936 431.93207332 -255.50842196 432.39652771 -257.28027344 432.86230469 C-276.1831773 437.79262914 -295.67534503 440.31478307 -315 443 C-316.6082666 443.22695557 -316.6082666 443.22695557 -318.24902344 443.45849609 C-367.55173629 450.10734952 -430.40595065 446.86819526 -471.8125 416.375 C-473.56388848 414.94343028 -475.29467629 413.48614418 -477 412 C-477.86367188 411.28328125 -478.72734375 410.5665625 -479.6171875 409.828125 C-497.24290072 394.72037081 -508.01260542 374.9860354 -511 352 C-512.14834192 335.07780025 -511.40333466 318.40216502 -507 302 C-506.80164551 301.2584668 -506.60329102 300.51693359 -506.39892578 299.75292969 C-496.53653677 264.43035585 -475.24674576 232.38748462 -451.875 204.5625 C-451.41343506 204.01231201 -450.95187012 203.46212402 -450.47631836 202.89526367 C-447.25416059 199.12708029 -447.25416059 199.12708029 -445 198 C-446.50503741 202.36788032 -448.87023748 205.87695989 -451.5 209.625 C-471.79271277 239.47420786 -486.19055325 277.30991122 -479.48071289 313.70092773 C-475.29193815 333.83900065 -463.51843584 351.49907815 -447.1640625 363.93359375 C-394.83739267 398.1074312 -325.98561187 393.58204842 -267.375 381.375 C-242.82964337 376.028244 -218.5222962 368.79878383 -195 360 C-193.97583984 359.62359375 -192.95167969 359.2471875 -191.89648438 358.859375 C-163.2856865 348.28693859 -135.41557165 335.25419472 -109 320 C-107.96681641 319.40928711 -106.93363281 318.81857422 -105.86914062 318.20996094 C-73.0211048 299.3720662 -41.28242673 277.85546657 -13.37109375 252.16015625 C-12.05123172 250.95771193 -10.72316864 249.76356659 -9.36547852 248.60400391 C-3.52710095 243.60655111 1.9327485 238.25339968 7.36303711 232.82226562 C8.92608734 231.26139673 10.49697365 229.70872112 12.06835938 228.15625 C17.77461873 222.48122488 23.08352418 216.67056058 28.10717773 210.36767578 C29.60098284 208.49911885 31.11668153 206.69657557 32.72265625 204.92578125 C61.57206194 172.70499259 84.66515594 128.3569875 83.13183594 84.23144531 C81.7646792 61.09105157 70.86245454 42.09750162 54.25 26.375 C38.65367164 12.74620845 19.58891017 6.47927508 0 1 C0 0.67 0 0.34 0 0 Z " fill="#EF7D24" transform="translate(562,189)"/>
<path d="M0 0 C0.95057785 -0.0066568 1.9011557 -0.0133136 2.88053894 -0.02017212 C4.88852001 -0.03027929 6.89653454 -0.03498974 8.90454102 -0.03466797 C11.95971753 -0.03903285 15.01343899 -0.07535029 18.06835938 -0.11328125 C20.02473468 -0.11915165 21.9811168 -0.12311955 23.9375 -0.125 C25.2957061 -0.14655655 25.2957061 -0.14655655 26.68135071 -0.16854858 C33.27622945 -0.12159025 38.69410451 1.20204335 43.69392395 5.71255493 C48.62641951 11.1910723 49.46750446 16.9219714 49.41406441 24.03957176 C49.4163721 24.79950949 49.41867978 25.55944722 49.4210574 26.34241337 C49.42635552 28.89148038 49.41737489 31.44029528 49.40847778 33.98934937 C49.40934989 35.83418926 49.41110096 37.67902892 49.41365612 39.52386725 C49.41813267 44.59544473 49.41012169 49.66693791 49.40009999 54.73850465 C49.39147226 60.20675292 49.39438517 65.67499635 49.39590454 71.14324951 C49.39695382 80.61807763 49.39067272 90.09287823 49.37942886 99.56769943 C49.36318266 113.2667391 49.35796676 126.96576545 49.35545288 140.66481371 C49.3510744 162.88999354 49.3377783 185.11516051 49.31884766 207.34033203 C49.30047829 228.93147709 49.2863113 250.52261822 49.27783203 272.11376953 C49.27743745 273.1121092 49.27743745 273.1121092 49.2770349 274.13061735 C49.27413619 281.47767101 49.27135251 288.82472471 49.26861596 296.17177844 C49.24787869 351.55984159 49.21264898 406.94788884 49.16796875 462.3359375 C47.72552089 461.86057847 46.28353717 461.38381086 44.8417511 460.90644836 C44.03869695 460.64109944 43.2356428 460.37575052 42.40825367 460.10236073 C39.87970134 459.23731842 37.45441296 458.23832281 35.0234375 457.12890625 C33.65795776 456.50689331 33.65795776 456.50689331 32.26489258 455.87231445 C31.30478271 455.42718506 30.34467285 454.98205566 29.35546875 454.5234375 C27.81959106 453.81417114 27.81959106 453.81417114 26.25268555 453.09057617 C18.54881433 449.50408168 10.89656025 445.81530973 3.28286743 442.04165649 C1.53995985 441.17791965 -0.2052022 440.31873665 -1.95043945 439.4597168 C-4.09395285 438.38709597 -6.22495436 437.28889715 -8.33916283 436.15961081 C-10.60898894 434.97450424 -12.91654819 433.85818207 -15.2598362 432.82590812 C-24.0956872 428.43954627 -24.0956872 428.43954627 -26.02441025 422.929515 C-26.48756104 418.53859853 -26.51972821 414.3134792 -26.41552734 409.90724182 C-26.42334943 408.21967353 -26.43687631 406.53212369 -26.45560074 404.84464115 C-26.49045234 400.21544761 -26.44435302 395.59007299 -26.38486147 390.96126115 C-26.33485266 385.96658305 -26.35998292 380.97221101 -26.37582397 375.97738647 C-26.39509221 366.19573879 -26.34545653 356.41559 -26.27320945 346.63423771 C-26.19197184 335.24308115 -26.18174898 323.85219488 -26.17521 312.46079098 C-26.16139144 292.13458428 -26.08733548 271.80905082 -25.97753906 251.4831543 C-25.87109722 231.76177757 -25.80025238 212.0407405 -25.77246094 192.3190918 C-25.77074174 191.10460102 -25.76902255 189.89011025 -25.76725125 188.63881672 C-25.76041938 183.75701797 -25.75365784 178.87521913 -25.74703276 173.9934201 C-25.71899527 154.06231517 -25.6627034 134.13127665 -25.60218048 114.20024753 C-25.58846715 109.65817706 -25.57590571 105.1161056 -25.56432343 100.57402921 C-25.5334358 88.63522112 -25.49347463 76.69656456 -25.42620695 64.75789971 C-25.39846561 59.82114532 -25.37516688 54.88448803 -25.36460495 49.94766426 C-25.35469439 45.42678976 -25.33087342 40.90620818 -25.29596257 36.38545953 C-25.28568408 34.75165699 -25.28034784 33.11781416 -25.28050494 31.48397929 C-25.27548007 12.76672591 -25.27548007 12.76672591 -20.18359375 6.21484375 C-19.61382812 5.78042969 -19.0440625 5.34601563 -18.45703125 4.8984375 C-17.89242188 4.44597656 -17.3278125 3.99351563 -16.74609375 3.52734375 C-11.23667472 0.0980115 -6.325427 0.01544432 0 0 Z " fill="#174C84" transform="translate(311.83203125,68.6640625)"/>
<path d="M0 0 C0.99355499 -0.00524185 1.98710999 -0.0104837 3.01077271 -0.0158844 C5.10694446 -0.02229103 7.20315223 -0.02098526 9.29931641 -0.01245117 C12.49056712 -0.00395218 15.6800201 -0.03270482 18.87109375 -0.06445312 C20.91406197 -0.0660657 22.95703333 -0.06548652 25 -0.0625 C25.94608124 -0.07373398 26.89216248 -0.08496796 27.86691284 -0.09654236 C35.19158629 -0.02027864 40.6863217 1.56464219 46.0078125 6.74609375 C50.24635662 13.75599363 49.92758538 20.91572897 49.92042542 28.88317871 C49.92707323 30.1378713 49.93372104 31.39256389 49.94057029 32.68527746 C49.95857767 36.15624253 49.96415677 39.62713159 49.96755707 43.09813762 C49.9733307 46.84599408 49.99045755 50.5938023 50.00590515 54.34162903 C50.04059324 63.38292891 50.05623217 72.42422455 50.07002845 81.46557641 C50.07699627 85.7254008 50.08615136 89.98522036 50.09513664 94.24504089 C50.12432591 108.40645865 50.14912414 122.56787171 50.15976048 136.72931671 C50.16045117 137.63486659 50.16114186 138.54041646 50.16185349 139.47340724 C50.1625455 140.38109136 50.16323752 141.28877547 50.1639505 142.22396517 C50.16536249 144.06320986 50.1667833 145.90245454 50.16821289 147.74169922 C50.16891806 148.65402327 50.16962323 149.56634732 50.17034977 150.50631756 C50.18260885 165.29991003 50.22542855 180.09324673 50.28115309 194.886733 C50.3379188 210.08001255 50.36840926 225.27316268 50.37277263 240.4665494 C50.37585506 248.99528305 50.39036524 257.52366077 50.43405342 266.05229187 C50.47113587 273.31158581 50.48434579 280.57042733 50.46634854 287.82980239 C50.45789026 291.53325382 50.46075744 295.23578116 50.49416733 298.93911171 C50.53007441 302.95473664 50.51171122 306.96829366 50.48805237 310.98400879 C50.50707802 312.15336519 50.52610367 313.32272159 50.54570585 314.52751303 C50.4676662 320.07810536 50.23937094 323.51242204 46.23951626 327.57228851 C45.06179634 328.55616756 43.8612384 329.51380464 42.6328125 330.43359375 C41.7871875 331.16964844 40.9415625 331.90570313 40.0703125 332.6640625 C39.2659375 333.30988281 38.4615625 333.95570313 37.6328125 334.62109375 C36.21162109 335.76384766 36.21162109 335.76384766 34.76171875 336.9296875 C34.0039917 337.53466064 34.0039917 337.53466064 33.23095703 338.15185547 C31.55316555 339.49747192 29.88743915 340.85708015 28.22265625 342.21875 C15.22947347 352.79964419 1.69233632 362.53675883 -12.3046875 371.74609375 C-13.16344482 372.31577881 -14.02220215 372.88546387 -14.90698242 373.47241211 C-15.70724854 373.99198486 -16.50751465 374.51155762 -17.33203125 375.046875 C-18.039646 375.50876221 -18.74726074 375.97064941 -19.47631836 376.4465332 C-21.3671875 377.43359375 -21.3671875 377.43359375 -24.3671875 377.43359375 C-24.43585077 331.72492929 -24.48871485 286.01627028 -24.52038349 240.30756441 C-24.52413562 234.91150445 -24.52801858 229.51544458 -24.53198242 224.11938477 C-24.53276935 223.04512424 -24.53355628 221.97086372 -24.53436706 220.86404984 C-24.54742176 203.46869145 -24.57107597 186.07336279 -24.59864589 168.67802203 C-24.62669827 150.82943457 -24.64336341 132.98086267 -24.64945298 115.13225406 C-24.65356976 104.11829382 -24.66657341 93.10441762 -24.6909369 82.09048324 C-24.70679201 74.53830659 -24.71158836 66.9861734 -24.70769163 59.43398131 C-24.70576975 55.07646031 -24.70872063 50.71908623 -24.72480392 46.36159134 C-24.73943013 42.36968019 -24.74012227 38.37801439 -24.72988418 34.38609182 C-24.72861929 32.94448272 -24.73240182 31.50285815 -24.74183705 30.06127936 C-24.8484502 12.76165007 -24.8484502 12.76165007 -19.0546875 5.55859375 C-12.76832789 0.58798382 -7.7614786 -0.02398083 0 0 Z " fill="#174C84" transform="translate(494.3671875,105.56640625)"/>
<path d="M0 0 C0.95489319 -0.0159874 1.90978638 -0.03197479 2.89361572 -0.04844666 C3.91968933 -0.05380936 4.94576294 -0.05917206 6.00292969 -0.06469727 C7.59738922 -0.07823997 7.59738922 -0.07823997 9.22406006 -0.09205627 C11.47340072 -0.1065597 13.72278358 -0.11544574 15.97216797 -0.11914062 C19.39851869 -0.13101244 22.82305402 -0.18017873 26.24902344 -0.23071289 C28.43781676 -0.24018034 30.62662112 -0.24741383 32.81542969 -0.25219727 C34.34239471 -0.28149574 34.34239471 -0.28149574 35.90020752 -0.31138611 C42.33174177 -0.270984 47.5025025 0.5899982 52.17480469 5.30639648 C56.62892855 11.47439469 56.73549995 16.53538373 56.65582275 24.00584412 C56.65924045 25.17972107 56.66265815 26.35359801 56.66617942 27.56304699 C56.67161599 30.80832161 56.65916522 34.05295235 56.63906717 37.2981509 C56.62175542 40.80249076 56.6276415 44.30680188 56.63067627 47.81117249 C56.63277129 53.87836717 56.62024637 59.94538948 56.59772491 66.01254082 C56.56518422 74.78453832 56.55479579 83.55645266 56.54977295 92.32850397 C56.54102354 106.56133503 56.51441758 120.79407426 56.4765625 135.02685547 C56.43983324 148.85074403 56.41152596 162.67460763 56.39453125 176.49853516 C56.39295491 177.77719766 56.39295491 177.77719766 56.39134672 179.08169173 C56.38612648 183.35824152 56.38107167 187.63479147 56.37609911 191.91134155 C56.33464809 227.37642531 56.26420931 262.84140242 56.17480469 298.30639648 C52.62448467 300.22504338 49.0733582 302.14218868 45.52152348 304.05803013 C44.31687765 304.70806965 43.11244133 305.35849762 41.90823078 306.00934315 C33.06486219 310.78849711 24.19018737 315.42357082 15.11230469 319.74389648 C14.22037415 320.17173431 14.22037415 320.17173431 13.3104248 320.60821533 C-13.16820379 333.30639648 -13.16820379 333.30639648 -16.82519531 333.30639648 C-16.89384889 292.78684716 -16.94671773 252.26730542 -16.9783913 211.74770957 C-16.98214346 206.9649443 -16.98602642 202.18217916 -16.98999023 197.39941406 C-16.99117063 195.97115915 -16.99117063 195.97115915 -16.99237487 194.51405061 C-17.00543188 179.0928629 -17.02908736 163.67170872 -17.0566537 148.2505409 C-17.08469968 132.42920558 -17.10136986 116.60788781 -17.1074608 100.78652865 C-17.11157891 91.02243317 -17.12458976 81.25843243 -17.14894471 71.49436612 C-17.16479193 64.80048111 -17.16959797 58.10664514 -17.16569944 51.41274273 C-17.16377632 47.54962721 -17.16674244 43.68667736 -17.18281174 39.82359123 C-17.20010711 35.63516948 -17.19416295 31.44710103 -17.18595886 27.25865173 C-17.19469739 26.03782912 -17.20343591 24.8170065 -17.21243924 23.55918926 C-17.17105776 15.76430412 -16.63724673 10.5510712 -11.38769531 4.49389648 C-7.60951232 1.26861832 -4.97230789 0.06317183 0 0 Z " fill="#144B83" transform="translate(395.8251953125,197.693603515625)"/>
<path d="M0 0 C0.88257477 -0.00428513 1.76514954 -0.00857025 2.67446899 -0.01298523 C4.53524928 -0.01870903 6.39605193 -0.01924322 8.25683594 -0.01489258 C11.08567982 -0.01173647 13.91347295 -0.03520262 16.7421875 -0.06054688 C18.55729036 -0.06282064 20.372396 -0.06352301 22.1875 -0.0625 C23.02421234 -0.07170975 23.86092468 -0.08091949 24.72299194 -0.09040833 C31.16734912 -0.0402878 36.9337532 0.92473766 42.00390625 5.23828125 C42.55175781 5.91890625 43.09960938 6.59953125 43.6640625 7.30078125 C44.22996094 7.98140625 44.79585938 8.66203125 45.37890625 9.36328125 C47.77550582 12.80882729 47.85116415 15.71986106 47.84961033 19.79242229 C47.85160138 20.94094919 47.85359243 22.08947608 47.85564381 23.27280682 C47.85273097 24.54029934 47.84981813 25.80779186 47.84681702 27.11369324 C47.84725287 28.46921713 47.84812805 29.82474094 47.84940618 31.18026429 C47.85164827 34.91321317 47.84763375 38.64613351 47.84262812 42.37907875 C47.83831972 46.40155849 47.83977032 50.42403655 47.8405304 54.44651794 C47.84105538 61.41842723 47.83791121 68.39032718 47.83229256 75.36223412 C47.82417415 85.44250813 47.82156199 95.52277763 47.82030457 105.60305456 C47.81811458 121.95664506 47.81145595 138.31023057 47.80200195 154.66381836 C47.79282645 170.55216446 47.78574629 186.44050921 47.78149414 202.32885742 C47.78123142 203.3078038 47.78096869 204.28675018 47.78069801 205.2953616 C47.779393 210.20632506 47.77812928 215.11728853 47.77688611 220.02825201 C47.76651517 260.78576522 47.74889831 301.54327295 47.7265625 342.30078125 C45.82925184 341.2053617 43.9333731 340.1074618 42.03808594 339.00854492 C40.98216248 338.39742355 39.92623901 337.78630219 38.83831787 337.15666199 C34.40227915 334.51096596 30.18389936 331.60517476 25.9765625 328.61328125 C24.69640259 327.70872192 24.69640259 327.70872192 23.39038086 326.78588867 C11.27044396 318.18395115 -0.4789048 309.31019279 -11.73876953 299.60888672 C-15.18436956 296.67195943 -18.71231509 293.83452518 -22.2265625 290.98046875 C-24.2734375 289.30078125 -24.2734375 289.30078125 -25.2734375 288.30078125 C-25.37281576 286.8416895 -25.40266551 285.37780424 -25.40486526 283.91533375 C-25.40870641 282.9625925 -25.41254755 282.00985126 -25.4165051 281.02823907 C-25.41563862 279.9691248 -25.41477213 278.91001052 -25.41387939 277.81880188 C-25.41685052 276.7032875 -25.41982164 275.58777313 -25.4228828 274.43845528 C-25.43161273 270.66900509 -25.43308166 266.89958648 -25.43457031 263.13012695 C-25.43919551 260.44023995 -25.4441988 257.75035588 -25.44961548 255.06047058 C-25.46322 247.72978388 -25.46922717 240.39910262 -25.47362614 233.06840539 C-25.4763857 228.49282416 -25.48062259 223.91724506 -25.48513031 219.34166527 C-25.4973271 206.67912205 -25.50762472 194.01658053 -25.5110054 181.35403156 C-25.51122497 180.54295057 -25.51144453 179.73186958 -25.51167075 178.89621038 C-25.51188903 178.08315549 -25.51210731 177.2701006 -25.5123322 176.43240768 C-25.51277567 174.78477243 -25.51322223 173.13713719 -25.51367188 171.48950195 C-25.5138933 170.67221287 -25.51411473 169.85492379 -25.51434287 169.01286837 C-25.5182898 155.7735137 -25.53573878 142.53421412 -25.5590314 129.29488073 C-25.58273972 115.70980881 -25.59520706 102.12476454 -25.59637332 88.5396716 C-25.59729052 80.90917699 -25.60305383 73.27875407 -25.62119293 65.64827919 C-25.63658712 59.14941094 -25.64171855 52.65063653 -25.63345483 46.15175352 C-25.62954549 42.8355606 -25.63212043 39.5195964 -25.64451218 36.20341873 C-25.65716112 32.60800823 -25.6513928 29.01308549 -25.64093018 25.41767883 C-25.64898658 24.36971817 -25.65704298 23.3217575 -25.66534352 22.24204046 C-25.62230022 15.93379415 -24.99327605 11.3828259 -20.66015625 6.47265625 C-20.09941406 6.0034375 -19.53867188 5.53421875 -18.9609375 5.05078125 C-18.40792969 4.57125 -17.85492188 4.09171875 -17.28515625 3.59765625 C-11.81940838 0.07410616 -6.27575984 -0.00680309 0 0 Z " fill="#144A83" transform="translate(221.2734375,141.69921875)"/>
<path d="M0 0 C26.20087603 31.78655729 41.2412714 76.4802096 37.79345703 117.45458984 C35.48485004 137.79564314 26.22221229 155.3602098 12 170 C11.32582031 170.74765625 10.65164063 171.4953125 9.95703125 172.265625 C-8.74786098 192.33916788 -36.8165515 201.5888487 -63 206.75 C-64.00683838 206.94883789 -65.01367676 207.14767578 -66.05102539 207.35253906 C-82.21580883 210.34644542 -98.33544835 211.3854215 -114.75 211.3125 C-115.63529388 211.31034485 -116.52058777 211.3081897 -117.43270874 211.30596924 C-167.11158158 211.11383088 -214.75039583 200.5635549 -262 186 C-259.41771 183.9427444 -257.07597589 182.47018111 -253.9921875 181.30078125 C-253.1870874 180.9867334 -252.3819873 180.67268555 -251.55249023 180.34912109 C-250.66891846 180.00703613 -249.78534668 179.66495117 -248.875 179.3125 C-238.55037735 175.202535 -228.48642256 170.60863706 -218.4375 165.875 C-217.71842468 165.53787994 -216.99934937 165.20075989 -216.25848389 164.85342407 C-214.14796593 163.86263826 -212.04027909 162.86609376 -209.93359375 161.8671875 C-209.25494766 161.54765106 -208.57630157 161.22811462 -207.87709045 160.89889526 C-204.65837928 159.36200398 -201.5363825 157.76583464 -198.48461914 155.91723633 C-190.85526242 151.36334928 -186.25454911 150.19488762 -177.5625 151.9375 C-175.39318071 152.28398386 -173.22252119 152.62215234 -171.05078125 152.953125 C-169.91463379 153.13294922 -168.77848633 153.31277344 -167.60791016 153.49804688 C-161.18143268 154.39213523 -154.72163148 154.7821929 -148.25 155.1875 C-147.02611572 155.27056396 -145.80223145 155.35362793 -144.54125977 155.43920898 C-120.45319187 156.97493189 -96.58053568 155.11712675 -73 150 C-71.95561768 149.78005371 -71.95561768 149.78005371 -70.89013672 149.55566406 C-46.20281742 144.2201965 -20.32733741 130.22590821 -6 109 C8.76907795 84.93163658 12.83730124 55.81183561 6.57861328 28.39013672 C5.13563423 22.4294764 3.59400129 16.49349107 1.98193359 10.57641602 C1.72621582 9.63596436 1.47049805 8.6955127 1.20703125 7.7265625 C0.9747583 6.88689941 0.74248535 6.04723633 0.50317383 5.18212891 C0 3 0 3 0 0 Z " fill="#EF7D24" transform="translate(651,423)"/>
<path d="M0 0 C3.5731559 1.19105197 4.25003825 2.29454177 6.5 5.25 C13.00210742 13.59616735 19.63118151 21.95455382 27.28466797 29.28173828 C29.01924983 31.01928271 30.59697031 32.83012377 32.18359375 34.703125 C35.97710927 39.06561789 40.07489388 43.01102502 44.3125 46.9375 C45.06378174 47.63770264 45.81506348 48.33790527 46.58911133 49.05932617 C48.7222299 51.04374564 50.86078664 53.02215658 53 55 C53.93585938 55.87398438 54.87171875 56.74796875 55.8359375 57.6484375 C61.37589455 62.7466704 67.21198203 67.42627264 73.16796875 72.0234375 C75.7211619 73.99425479 78.23969236 75.99953024 80.73828125 78.0390625 C118.57863633 108.63735578 162.85772186 133.99447803 207.70214844 152.77880859 C208.65637695 153.1805127 209.61060547 153.5822168 210.59375 153.99609375 C211.84188477 154.50934204 211.84188477 154.50934204 213.11523438 155.03295898 C215 156 215 156 216 158 C200.97235342 163.13410233 185.93801607 167.72323578 170.5 171.4375 C169.81157013 171.60435303 169.12314026 171.77120605 168.41384888 171.94311523 C163.95419443 173.01829915 159.48316288 174.02644208 155 175 C153.88238281 175.25773193 152.76476562 175.51546387 151.61328125 175.78100586 C145.24259042 177.09520815 141.68623511 177.35538987 136 173.6875 C135.35667725 173.28724609 134.71335449 172.88699219 134.05053711 172.47460938 C132.55685261 171.54434559 131.07162792 170.60041606 129.59326172 169.64599609 C126.63964696 167.77127658 123.64028137 165.98746638 120.62890625 164.20703125 C91.56250221 146.98089153 63.80957725 127.82953601 38 106 C37.37222656 105.47132324 36.74445313 104.94264648 36.09765625 104.39794922 C24.98723721 95.02867143 14.18289218 85.37998042 4 75 C1.2734488 72.25956144 -1.46974788 69.53785172 -4.234375 66.8359375 C-11.27480034 59.92485858 -18.18939292 53.00994901 -24 45 C-24.4846875 44.39027344 -24.969375 43.78054688 -25.46875 43.15234375 C-26.22054894 40.10645248 -24.98584957 38.35046418 -23.48388672 35.72119141 C-22.87311279 34.71451416 -22.87311279 34.71451416 -22.25 33.6875 C-21.63342529 32.6344165 -21.63342529 32.6344165 -21.00439453 31.56005859 C-14.55581229 20.68583555 -7.319327 10.3003774 0 0 Z " fill="#EF7D24" transform="translate(135,384)"/>
<path d="M0 0 C21 0 21 0 25.4296875 3.94140625 C26.33855448 5.60010468 27.19663962 7.28771154 28 9 C28.99957976 10.48380188 30.02311788 11.95175382 31.0703125 13.40234375 C32.09078744 14.91254742 33.10894837 16.42431683 34.125 17.9375 C38.52397493 24.43095047 43.0083653 30.8469539 47.625 37.1875 C52.19570679 43.46700998 56.65593369 49.80817279 61.03417969 56.22314453 C66.02798945 63.53039813 71.12556941 70.77776505 76.39941406 77.88623047 C80 82.78611428 80 82.78611428 80 85 C80.66 85 81.32 85 82 85 C82 56.95 82 28.9 82 0 C90.91 0 99.82 0 109 0 C109.33 46.53 109.66 93.06 110 141 C102.74 141 95.48 141 88 141 C81.22798984 133.94873169 81.22798984 133.94873169 79.48828125 130.53125 C76.86935369 125.66494925 73.78730991 121.21312305 70.625 116.6875 C69.52217163 115.06726716 68.42061397 113.44616868 67.3203125 111.82421875 C64.12807524 107.1558295 60.83042958 102.57042975 57.5 98 C50.8009594 88.80071306 44.39496571 79.41201318 38 70 C36.25506619 67.43399116 34.50508204 64.87157609 32.75 62.3125 C32.04359375 61.27738281 31.3371875 60.24226563 30.609375 59.17578125 C30.07828125 58.45777344 29.5471875 57.73976562 29 57 C28.67 57 28.34 57 28 57 C28 84.72 28 112.44 28 141 C18.76 141 9.52 141 0 141 C0 94.47 0 47.94 0 0 Z " fill="#EF7D24" transform="translate(1047,192)"/>
<path d="M0 0 C76.14498391 0 76.14498391 0 91.25 13.5625 C100.43786861 23.26080575 104.55555547 36.44878913 104.3125 49.55859375 C103.05937351 63.35864922 96.37394089 74.13008771 86 83 C83.41068167 84.82047637 80.76906169 86.46817864 78 88 C84.42748801 101.66972801 92.32765866 114.38698301 100.21875 127.24609375 C100.72825195 128.0772168 101.23775391 128.90833984 101.76269531 129.76464844 C102.73847817 131.35421985 103.71690715 132.94217057 104.69824219 134.52832031 C108 139.89092325 108 139.89092325 108 141 C97.77 141 87.54 141 77 141 C75.63875 138.525 74.2775 136.05 72.875 133.5 C65.94732406 120.97611826 58.91150828 108.43635092 51.31225586 96.3059082 C50 94 50 94 50 92 C42.74 92 35.48 92 28 92 C28 108.17 28 124.34 28 141 C18.76 141 9.52 141 0 141 C0 94.47 0 47.94 0 0 Z M28 26 C28 39.86 28 53.72 28 68 C35.92 68.12375 35.92 68.12375 44 68.25 C45.65 68.28641602 47.3 68.32283203 49 68.36035156 C56.49019158 68.45893244 62.69917069 68.53628479 69 64 C71.09995699 61.85194648 71.09995699 61.85194648 72.4375 59.4375 C72.91058594 58.67308594 73.38367187 57.90867187 73.87109375 57.12109375 C76.85938591 51.50641333 77.10379198 44.75289275 75.31640625 38.67578125 C72.6017581 32.76212864 68.14808577 28.34889743 62 26 C59.35387537 25.83195193 56.81486189 25.76679415 54.171875 25.8046875 C53.17534912 25.80770874 53.17534912 25.80770874 52.15869141 25.81079102 C49.68905686 25.82121498 47.21952113 25.84913755 44.75 25.875 C36.45875 25.936875 36.45875 25.936875 28 26 Z " fill="#EF7D24" transform="translate(1292,192)"/>
<path d="M0 0 C11.55 0 23.1 0 35 0 C39.29828824 10.87970715 43.38954689 21.76414389 47.11135864 32.85217285 C48.48626209 36.94430045 49.87736187 41.03090701 51.26953125 45.1171875 C51.56550705 45.98593506 51.86148285 46.85468262 52.16642761 47.74975586 C55.87852047 58.61363538 59.72106172 69.43133636 63.5625 80.25 C64.286217 82.29011945 65.00993121 84.33023988 65.73364258 86.37036133 C68.76516034 94.91186018 71.80268357 103.45118596 74.85145569 111.98654175 C75.99397881 115.18743804 77.13307994 118.389545 78.27145386 121.59191895 C79.04338981 123.75885492 79.82055246 125.92386803 80.59790039 128.08886719 C81.05644422 129.37815144 81.5147144 130.66753306 81.97265625 131.95703125 C82.36718994 133.06022705 82.76172363 134.16342285 83.16821289 135.30004883 C84 138 84 138 84 141 C74.1 141 64.2 141 54 141 C51.36 133.08 48.72 125.16 46 117 C27.19 116.67 8.38 116.34 -11 116 C-11.99 119.96 -12.98 123.92 -14 128 C-14.67445332 130.23965016 -15.37381943 132.47240454 -16.125 134.6875 C-16.45757813 135.68136719 -16.79015625 136.67523438 -17.1328125 137.69921875 C-18 140 -18 140 -19 141 C-21.21855264 141.08783542 -23.43988496 141.10694609 -25.66015625 141.09765625 C-26.65685585 141.09553383 -26.65685585 141.09553383 -27.6736908 141.09336853 C-29.80333899 141.08775518 -31.93288339 141.07520054 -34.0625 141.0625 C-35.50325369 141.05748671 -36.94400903 141.05292351 -38.38476562 141.04882812 C-41.92321102 141.03778145 -45.46159539 141.02050792 -49 141 C-41.46996718 118.13813466 -33.69704933 95.37218392 -25.69877625 72.67002869 C-23.56150883 66.6024378 -21.43591972 60.53084517 -19.31640625 54.45703125 C-12.96856459 36.27056316 -6.56472239 18.10957901 0 0 Z M17 33 C15.07884654 38.61910512 13.15829873 44.23841677 11.23828125 49.85791016 C10.58674986 51.76454081 9.93506081 53.6711176 9.28320312 55.57763672 C7.73317261 60.11123824 6.18520377 64.64551366 4.64257812 69.18164062 C3.65686694 72.07990886 2.66293893 74.97487218 1.65429688 77.86523438 C1.28884766 78.92548828 0.92339844 79.98574219 0.546875 81.078125 C0.08812988 82.39151855 0.08812988 82.39151855 -0.37988281 83.73144531 C-1.17578636 86.25110964 -1.17578636 86.25110964 -1 90 C11.54 90 24.08 90 37 90 C35.11709172 82.46836686 33.22586788 75.28004849 30.6796875 68 C30.37555939 67.11642822 30.07143127 66.23285645 29.75808716 65.32250977 C28.80179658 62.54667603 27.83878431 59.77323972 26.875 57 C25.90528416 54.19779581 24.93702055 51.39510115 23.9704895 48.59179688 C23.37273087 46.85929479 22.77294844 45.12748926 22.17086792 43.39648438 C21.900336 42.61466797 21.62980408 41.83285156 21.35107422 41.02734375 C21.11363495 40.34406006 20.87619568 39.66077637 20.63156128 38.95678711 C19.99587645 36.98722387 19.4784746 35.01298765 19 33 C18.34 33 17.68 33 17 33 Z " fill="#EF7D24" transform="translate(2040,192)"/>
<path d="M0 0 C11.55 0 23.1 0 35 0 C43.90596292 24.84688813 52.73196907 49.71924327 61.42875671 74.6401062 C64.30721839 82.88598725 67.20212229 91.12606631 70.09921265 99.36541748 C70.92312502 101.70910909 71.74645316 104.05300508 72.56958008 106.39697266 C74.8283729 112.82837581 77.08962273 119.25880676 79.3671875 125.68359375 C79.70371338 126.63588867 80.04023926 127.58818359 80.38696289 128.56933594 C80.97991612 130.24668504 81.57523915 131.92319943 82.17358398 133.59863281 C84 138.77496019 84 138.77496019 84 141 C74.1 141 64.2 141 54 141 C52.68 137.24625 51.36 133.4925 50 129.625 C49.58234375 128.44244629 49.1646875 127.25989258 48.734375 126.04150391 C48.40953125 125.11257324 48.0846875 124.18364258 47.75 123.2265625 C47.41484375 122.27346191 47.0796875 121.32036133 46.734375 120.33837891 C46 118 46 118 46 116 C27.19 116 8.38 116 -11 116 C-11.99 119.63 -12.98 123.26 -14 127 C-15.65 131.62 -17.3 136.24 -19 141 C-28.9 141 -38.8 141 -49 141 C-47.24258498 134.55614492 -45.56247156 128.44693365 -43.35546875 122.203125 C-43.10921753 121.50348129 -42.86296631 120.80383759 -42.60925293 120.08299255 C-41.80584324 117.8039506 -40.99675152 115.52697343 -40.1875 113.25 C-39.61473254 111.62875313 -39.04222836 110.00741322 -38.4699707 108.38598633 C-33.96254329 95.63388535 -29.37489719 82.91071636 -24.78588867 70.18780518 C-20.97602175 59.61800152 -17.27531189 49.02522101 -13.77758789 38.34716797 C-9.53928517 25.45379283 -5.04108568 12.60271421 0 0 Z M17 33 C11.95416279 46.74962955 7.07998495 60.54706722 2.4375 74.4375 C2.21427063 75.10219299 1.99104126 75.76688599 1.76104736 76.45172119 C1.12760303 78.34035516 0.49923235 80.23068853 -0.12890625 82.12109375 C-0.49056885 83.2083374 -0.85223145 84.29558105 -1.22485352 85.41577148 C-2.09576879 87.86961646 -2.09576879 87.86961646 -2 90 C10.87 90 23.74 90 37 90 C35.05740268 82.87714317 33.06693284 75.8738688 30.75 68.87890625 C30.45061523 67.97172348 30.15123047 67.06454071 29.84277344 66.12986755 C29.21579716 64.23456574 28.58720259 62.33979853 27.95703125 60.44555664 C26.99502959 57.54752664 26.04431012 54.64594054 25.09375 51.74414062 C24.47985417 49.89300103 23.86529456 48.0420814 23.25 46.19140625 C22.96866211 45.32786026 22.68732422 44.46431427 22.39746094 43.57460022 C21.05619403 39.58094904 19.88962629 36.1763042 17 33 Z " fill="#EF7D24" transform="translate(1737,192)"/>
<path d="M0 0 C11.55 0 23.1 0 35 0 C37.37248128 5.93120319 39.71962278 11.82863969 41.8828125 17.83203125 C42.13826843 18.53732971 42.39372437 19.24262817 42.65692139 19.96929932 C43.48178178 22.24959029 44.30367956 24.5309318 45.125 26.8125 C45.41167542 27.60743866 45.69835083 28.40237732 45.99371338 29.22140503 C50.52506105 41.79278181 54.93630661 54.40049319 59.265625 67.04296875 C62.67860352 77.00094211 66.15429233 86.93703252 69.625 96.875 C70.27662833 98.74136776 70.92823984 100.6077414 71.57983398 102.47412109 C72.52264343 105.17458031 73.46547551 107.87503159 74.40843201 110.57543945 C77.94830862 120.71371221 81.4749727 130.85655409 85 141 C74.77 141 64.54 141 54 141 C51.36 133.08 48.72 125.16 46 117 C27.19 116.67 8.38 116.34 -11 116 C-11.66 118.97 -12.32 121.94 -13 125 C-13.81763766 127.68979864 -14.65435343 130.34293022 -15.5625 133 C-15.78357422 133.66644531 -16.00464844 134.33289063 -16.23242188 135.01953125 C-17.86601142 139.86601142 -17.86601142 139.86601142 -19 141 C-21.21855264 141.08783542 -23.43988496 141.10694609 -25.66015625 141.09765625 C-26.65685585 141.09553383 -26.65685585 141.09553383 -27.6736908 141.09336853 C-29.80333899 141.08775518 -31.93288339 141.07520054 -34.0625 141.0625 C-35.50325369 141.05748671 -36.94400903 141.05292351 -38.38476562 141.04882812 C-41.92321102 141.03778145 -45.46159539 141.02050792 -49 141 C-43.87534625 125.41182492 -38.65711255 109.87215457 -33.09521484 94.43359375 C-29.24440889 83.72955888 -25.49034041 72.99305443 -21.75 62.25 C-21.11426035 60.42447828 -20.47851816 58.59895745 -19.84277344 56.7734375 C-18.8781489 54.00343417 -17.91355619 51.23341981 -16.9491272 48.46334839 C-13.33169498 38.07572801 -9.69771363 27.69390831 -6.0625 17.3125 C-5.44693926 15.55436228 -4.83137934 13.79622426 -4.21582031 12.03808594 C-2.8108216 8.02529433 -1.40540212 4.01265042 0 0 Z M17 33 C14.64779054 39.98713988 12.30043471 46.9758902 9.95927429 53.96674061 C8.87204572 57.21276576 7.7831486 60.45821113 6.69042969 63.70239258 C5.43447637 67.43144368 4.18579492 71.16290916 2.9375 74.89453125 C2.54377197 76.06023148 2.15004395 77.2259317 1.74438477 78.42695618 C1.38401123 79.50785019 1.0236377 80.5887442 0.65234375 81.70239258 C0.33257568 82.65503494 0.01280762 83.60767731 -0.31665039 84.58918762 C-1.13635413 87.06341674 -1.13635413 87.06341674 -1 90 C11.54 90 24.08 90 37 90 C35.44687548 82.83950518 35.44687548 82.83950518 33.44360352 75.89501953 C33.0078878 74.55916306 33.0078878 74.55916306 32.56336975 73.19631958 C32.2549968 72.26786224 31.94662384 71.33940491 31.62890625 70.3828125 C31.30591049 69.40384003 30.98291473 68.42486755 30.65013123 67.41622925 C29.97085099 65.36329388 29.28918033 63.31114805 28.60522461 61.25976562 C27.55965335 58.11644204 26.52860859 54.96858422 25.49804688 51.8203125 C24.83421405 49.82002 24.16953045 47.82000961 23.50390625 45.8203125 C23.19755753 44.87970978 22.8912088 43.93910706 22.57557678 42.97000122 C22.28194748 42.0983432 21.98831818 41.22668518 21.68579102 40.32861328 C21.43201187 39.56300079 21.17823273 38.79738831 20.91676331 38.00857544 C19.92197225 35.82904571 18.78569245 34.57420085 17 33 Z " fill="#EF7D24" transform="translate(1453,192)"/>
<path d="M0 0 C7.10391677 6.15885161 12.20389798 12.44602887 16.30078125 20.890625 C12.67997245 23.06435546 9.0534689 25.22839729 5.42578125 27.390625 C4.39324219 28.01066406 3.36070313 28.63070312 2.296875 29.26953125 C0.81767578 30.14931641 0.81767578 30.14931641 -0.69140625 31.046875 C-1.6026123 31.59150391 -2.51381836 32.13613281 -3.45263672 32.69726562 C-5.69921875 33.890625 -5.69921875 33.890625 -7.69921875 33.890625 C-8.92578125 32.1328125 -8.92578125 32.1328125 -10.32421875 29.765625 C-14.69879501 22.99036664 -19.90144556 19.0287241 -27.69921875 16.890625 C-35.19456927 16.09087296 -42.57077776 15.99994795 -48.69921875 20.890625 C-52.13463743 24.63690523 -52.22976091 27.50270686 -52.02734375 32.42578125 C-51.50570176 36.34430621 -50.50822816 38.08161559 -47.69921875 40.890625 C-40.1060704 45.00361528 -31.86689497 47.67765273 -23.69921875 50.390625 C8.14418798 60.96771902 8.14418798 60.96771902 16.15234375 74.484375 C21.11789564 84.88838848 22.12283969 96.50190062 18.33203125 107.453125 C13.4193636 119.0648849 5.90030505 127.07457061 -5.8515625 131.859375 C-6.79128906 132.1996875 -7.73101563 132.54 -8.69921875 132.890625 C-9.56675781 133.2103125 -10.43429687 133.53 -11.328125 133.859375 C-28.05870658 138.99992354 -48.0887181 137.01139711 -63.63671875 129.140625 C-74.77737263 122.44287057 -82.87871401 113.47798845 -86.69921875 100.890625 C-84.34561757 99.47301193 -81.99135647 98.0565146 -79.63671875 96.640625 C-78.97994141 96.24488281 -78.32316406 95.84914063 -77.64648438 95.44140625 C-75.66744633 94.25203363 -73.68433384 93.06982359 -71.69921875 91.890625 C-71.04324707 91.49810547 -70.38727539 91.10558594 -69.71142578 90.70117188 C-64.93176119 87.890625 -64.93176119 87.890625 -62.69921875 87.890625 C-61.59896266 89.56182479 -60.56941864 91.27981124 -59.57421875 93.015625 C-54.4838873 101.16434489 -49.08871246 105.23524419 -39.69140625 107.421875 C-30.97381912 108.78755445 -21.78005363 108.83780204 -13.69921875 104.890625 C-10.2169426 101.40834885 -8.7950022 99.04002635 -8.38671875 94.140625 C-8.51030688 89.57610355 -9.45996926 87.27711311 -12.69921875 83.890625 C-21.75811305 78.4588435 -31.69414901 75.39222834 -41.71118164 72.28613281 C-54.16958031 68.39787269 -68.40025685 63.695232 -75.48828125 51.91796875 C-81.03906262 41.09262973 -82.7411298 29.47617799 -79.63671875 17.515625 C-75.50600496 6.08411475 -67.18497748 -1.32947034 -56.69921875 -6.921875 C-38.38018667 -15.42414332 -15.78866165 -12.33846207 0 0 Z " fill="#EF7D24" transform="translate(1911.69921875,200.109375)"/>
<path d="M0 0 C6.25575866 5.19959161 11.63359042 10.65532155 16.0625 17.5 C16.0625 18.16 16.0625 18.82 16.0625 19.5 C4.6775 25.935 4.6775 25.935 -6.9375 32.5 C-11.9375 27.5 -11.9375 27.5 -14.125 25.0625 C-24.20375088 15.87963809 -35.4980078 12.66560836 -48.90625 13.15625 C-60.31595725 13.91545105 -71.39705088 18.58645666 -79.2578125 26.9765625 C-85.55322386 35.03747668 -89.16560867 44.27243987 -89.9375 54.5 C-89.9890625 55.13679688 -90.040625 55.77359375 -90.09375 56.4296875 C-90.64170748 68.89572019 -86.86256061 81.37947649 -79.25 91.25 C-71.51486205 99.68110151 -59.90903143 103.99816025 -48.7109375 104.703125 C-35.80175998 104.88118262 -25.12117415 102.87998265 -14.9375 94.5 C-12.34224157 91.65606699 -10.06705436 88.7052337 -7.9375 85.5 C-2.0222699 88.67885397 3.85817327 91.91596061 9.6875 95.25 C10.69039062 95.82234375 11.69328125 96.3946875 12.7265625 96.984375 C15.0625 98.5 15.0625 98.5 16.0625 100.5 C12.31458417 105.45761777 8.63377465 110.26320886 4.0625 114.5 C3.51335937 115.04269531 2.96421875 115.58539063 2.3984375 116.14453125 C-12.57616994 130.28721606 -32.64138457 133.19106652 -52.34667969 132.63623047 C-70.98681975 131.65609495 -87.10471821 122.63496661 -99.9375 109.5 C-105.99458083 102.45106014 -110.76488947 95.24800697 -113.9375 86.5 C-114.329375 85.45070313 -114.72125 84.40140625 -115.125 83.3203125 C-121.34399959 63.92912628 -119.25485243 42.48282209 -110.75 24.1875 C-101.64191994 7.11713247 -87.04924682 -5.63955452 -68.6171875 -11.72265625 C-45.07430833 -18.55215035 -19.71730941 -14.82128832 0 0 Z " fill="#EF7D24" transform="translate(905.9375,203.5)"/>
<path d="M0 0 C28.38 0 56.76 0 86 0 C86 8.58 86 17.16 86 26 C57.29 26.495 57.29 26.495 28 27 C28 36.57 28 46.14 28 56 C45.49 56.33 62.98 56.66 81 57 C81 65.58 81 74.16 81 83 C63.18 83 45.36 83 27 83 C27.495 98.345 27.495 98.345 28 114 C57.205 114.495 57.205 114.495 87 115 C87 123.58 87 132.16 87 141 C57.96 141 28.92 141 -1 141 C-0.67 94.47 -0.34 47.94 0 0 Z " fill="#EF7C23" transform="translate(940,192)"/>
<path d="M0 0 C-2.99297807 1.70592134 -6.00644304 2.58430029 -9.3293457 3.44433594 C-25.6566258 7.74785528 -41.12885428 15.00505577 -54 26 C-54.78117187 26.60972656 -55.56234375 27.21945313 -56.3671875 27.84765625 C-70.26748494 39.17471524 -80.59260346 57.95475206 -82.80078125 75.78759766 C-85.78403137 108.91776018 -76.48439143 141.42318988 -57.93359375 168.984375 C-57 171 -57 171 -57.00390625 172.88671875 C-58.54084016 176.14742951 -61.01541914 178.5079043 -63.5 181.0625 C-68.96258782 186.82446327 -74.03666114 192.80027386 -79 199 C-80.68271361 201.06645599 -82.37281991 203.12672195 -84.0625 205.1875 C-84.81660156 206.10917969 -85.57070312 207.03085937 -86.34765625 207.98046875 C-86.89292969 208.64691406 -87.43820313 209.31335938 -88 210 C-91.6476398 208.78412007 -91.95489004 207.89130402 -93.85546875 204.65234375 C-94.6594812 203.291698 -94.6594812 203.291698 -95.47973633 201.90356445 C-96.04329834 200.92476318 -96.60686035 199.94596191 -97.1875 198.9375 C-97.76975342 197.93614014 -98.35200684 196.93478027 -98.9519043 195.90307617 C-103.648217 187.75606542 -108.07777435 179.54675558 -112 171 C-112.33870117 170.26749023 -112.67740234 169.53498047 -113.02636719 168.78027344 C-122.16837258 148.76897131 -127.40739369 128.39936392 -127.375 106.3125 C-127.37412384 105.65425232 -127.37324768 104.99600464 -127.37234497 104.31781006 C-127.25939937 78.5310398 -118.41211505 56.49385157 -100.5 37.875 C-76.01612252 13.68068218 -34.25185424 -1.18109842 0 0 Z " fill="#EF7D24" transform="translate(178,189)"/>
<path d="M0 0 C7.59 0 15.18 0 23 0 C28.62664631 6.73808262 28.62664631 6.73808262 29.90625 10.18359375 C32.32447735 16.04952947 35.70567404 21.25879715 39.0625 26.625 C40.2666456 28.5962393 41.46852406 30.56886555 42.66796875 32.54296875 C46.42830518 38.70583109 50.204453 44.85875781 54 51 C58.05821972 45.02842947 61.88595465 38.96270119 65.5625 32.75 C70.04252969 25.23217632 74.58355039 17.75511449 79.1875 10.3125 C79.75218994 9.39758789 80.31687988 8.48267578 80.89868164 7.54003906 C81.68166626 6.27691895 81.68166626 6.27691895 82.48046875 4.98828125 C83.17499146 3.86740112 83.17499146 3.86740112 83.88354492 2.72387695 C85 1 85 1 86 0 C93.26 0 100.52 0 108 0 C108 36.3 108 72.6 108 110 C100.74 110 93.48 110 86 110 C86 87.23 86 64.46 86 41 C80.39 50.24 74.78 59.48 69 69 C60.22209821 83.21875 60.22209821 83.21875 56 90 C54.23144531 89.85375977 54.23144531 89.85375977 52 89 C50.16699219 86.56616211 50.16699219 86.56616211 48.296875 83.33984375 C47.59445407 82.14824348 46.89197815 80.95667562 46.18945312 79.76513672 C45.64961792 78.83396027 45.64961792 78.83396027 45.09887695 77.88397217 C43.32114371 74.83613324 41.47700098 71.82913054 39.640625 68.81640625 C38.90968006 67.6103145 38.17921256 66.40393328 37.44921875 65.19726562 C36.906604 64.30068237 36.906604 64.30068237 36.35302734 63.38598633 C35.61020719 62.15798196 34.86770024 60.92978808 34.12548828 59.70141602 C33.0275667 57.88485051 31.92796619 56.06930999 30.828125 54.25390625 C29.8676123 52.66557983 29.8676123 52.66557983 28.88769531 51.04516602 C26.99223729 47.98747745 24.99555047 44.99332571 23 42 C22.67 64.44 22.34 86.88 22 110 C14.74 110 7.48 110 0 110 C0 73.7 0 37.4 0 0 Z " fill="#174C84" transform="translate(1299,416)"/>
<path d="M0 0 C58.61263158 0 58.61263158 0 68.9453125 9.85546875 C76.01011962 17.49669319 77.74632348 24.73934205 77.42578125 35.03125 C76.77353272 41.1109244 74.7419994 46.30937295 70.33203125 50.63671875 C68.76704618 51.92075204 68.76704618 51.92075204 69 54 C70.43149854 55.33369479 70.43149854 55.33369479 72.25 56.6875 C76.90191453 60.53898389 79.87184144 64.96909629 81 71 C81.7534765 81.4992627 81.27977158 90.66832931 74.6875 99.3125 C67.48424425 106.51575575 60.14078075 110.07821806 49.83764648 110.34057617 C47.51540814 110.33983495 45.19313006 110.32360969 42.87109375 110.29296875 C41.7792981 110.28994751 40.68750244 110.28692627 39.56262207 110.28381348 C35.52081725 110.26822865 31.47914819 110.22634547 27.4375 110.1875 C13.8559375 110.0946875 13.8559375 110.0946875 0 110 C0 73.7 0 37.4 0 0 Z M22 21 C22 28.92 22 36.84 22 45 C25.83625 45.061875 29.6725 45.12375 33.625 45.1875 C34.82334473 45.21481201 36.02168945 45.24212402 37.25634766 45.27026367 C45.06912157 45.35606104 45.06912157 45.35606104 52 42 C54.99163411 39.00836589 55.43170826 36.73834109 55.4375 32.5625 C55.34048824 28.73819421 55.13604107 27.22673512 53.125 23.875 C49.61545707 20.77834447 47.51348148 20.88077812 42.8984375 20.90234375 C41.08085938 20.90717773 41.08085938 20.90717773 39.2265625 20.91210938 C37.95554687 20.92048828 36.68453125 20.92886719 35.375 20.9375 C33.456875 20.94426758 33.456875 20.94426758 31.5 20.95117188 C28.33331355 20.96298787 25.16665104 20.98092379 22 21 Z M22 64 C22 72.58 22 81.16 22 90 C26.03890609 90.06906299 30.07629805 90.1287351 34.11547852 90.16479492 C35.48794517 90.17983432 36.86036414 90.20027133 38.23266602 90.22631836 C40.21088656 90.26291221 42.18946514 90.27816698 44.16796875 90.29296875 C45.35672607 90.3086792 46.5454834 90.32438965 47.77026367 90.34057617 C52.08126722 89.88598021 54.61804156 88.28324712 57.75 85.375 C59.67886555 81.71015546 60.12162519 78.12094772 60 74 C58.51216314 69.77141103 56.86411644 67.29431914 53 65 C49.64264863 63.88088288 47.11794614 63.88634414 43.58203125 63.90234375 C42.32841797 63.90556641 41.07480469 63.90878906 39.78320312 63.91210938 C37.81770508 63.92467773 37.81770508 63.92467773 35.8125 63.9375 C34.47721519 63.94251683 33.14192859 63.94707941 31.80664062 63.95117188 C28.5377412 63.96297296 25.26886498 63.98090864 22 64 Z " fill="#184C84" transform="translate(1741,416)"/>
<path d="M0 0 C17 0 17 0 21.1171875 3.375 C22.55688477 5.58618164 22.55688477 5.58618164 23.875 8 C24.38925537 8.81654053 24.90351074 9.63308105 25.43334961 10.47436523 C26.48860656 12.152024 27.52103918 13.84426316 28.52978516 15.55029297 C30.70515424 19.1749448 33.13390057 22.60502505 35.5625 26.0625 C36.45997476 27.37257496 37.35580172 28.68378023 38.25 29.99609375 C41.15003936 34.23228237 44.10023456 38.43215952 47.0625 42.625 C47.50859619 43.25672119 47.95469238 43.88844238 48.41430664 44.53930664 C53.25249743 51.37653619 58.13153101 58.18414342 63 65 C63.33 43.55 63.66 22.1 64 0 C71.26 0 78.52 0 86 0 C86 36.3 86 72.6 86 110 C80.06 110 74.12 110 68 110 C64.75116458 106.33345717 63.0441428 104.0913265 61.01074219 99.90820312 C59.10653663 96.31321021 56.63607078 93.09839137 54.25 89.8125 C53.21071863 88.34873495 52.17297339 86.8838781 51.13671875 85.41796875 C50.09130723 83.94519792 49.04573607 82.4725404 48 81 C39.53925364 69.08341707 31.25435553 57.06405808 23 45 C22.67 66.45 22.34 87.9 22 110 C14.74 110 7.48 110 0 110 C0 73.7 0 37.4 0 0 Z " fill="#184E85" transform="translate(835,416)"/>
<path d="M0 0 C16 0 16 0 20.3125 4 C21.58193932 5.97468339 22.80707383 7.97817462 24 10 C25.22832758 11.8190185 26.48883132 13.61321848 27.75024414 15.40942383 C29.16985485 17.43913184 30.56347939 19.48483234 31.953125 21.53515625 C35.72049224 27.07634614 39.57863895 32.55340338 43.43798828 38.03076172 C49.71163239 46.96089904 55.8469182 55.98661034 62 65 C62.01030746 64.20042374 62.02061493 63.40084747 62.03123474 62.57704163 C62.12904082 55.05732704 62.23153065 47.53769807 62.33933926 40.01812077 C62.39460355 36.1518399 62.448029 32.28555152 62.49731445 28.41918945 C62.5449065 24.69089913 62.59724715 20.96270348 62.65294075 17.23452568 C62.67338778 15.80913067 62.69209691 14.38370968 62.70907402 12.95826912 C62.73306596 10.96829459 62.76370136 8.97840345 62.79467773 6.98852539 C62.81022202 5.85379288 62.8257663 4.71906036 62.84178162 3.54994202 C63 1 63 1 64 0 C70.93 0 77.86 0 85 0 C85 36.3 85 72.6 85 110 C68 110 68 110 64.20703125 106.984375 C62.95166016 104.97338867 62.95166016 104.97338867 61.8125 102.75 C60.86020221 101.17709429 59.90568167 99.60553268 58.94921875 98.03515625 C58.47274902 97.20773926 57.9962793 96.38032227 57.50537109 95.52783203 C54.95506684 91.24533929 52.02160818 87.23995473 49.125 83.1875 C47.9498612 81.51179066 46.77670095 79.83469217 45.60546875 78.15625 C45.01685059 77.31449219 44.42823242 76.47273438 43.82177734 75.60546875 C43.22059082 74.74566406 42.6194043 73.88585937 42 73 C39.4795906 69.3955366 36.95867728 65.79142632 34.4375 62.1875 C33.86596191 61.36983154 33.29442383 60.55216309 32.70556641 59.7097168 C32.16206543 58.93281494 31.61856445 58.15591309 31.05859375 57.35546875 C30.58736084 56.68153076 30.11612793 56.00759277 29.63061523 55.31323242 C27.43500433 52.19848272 25.21499595 49.10099434 23 46 C22.67 67.12 22.34 88.24 22 110 C14.74 110 7.48 110 0 110 C0 73.7 0 37.4 0 0 Z " fill="#174C84" transform="translate(1942,416)"/>
<path d="M0 0 C17 0 17 0 21.30078125 3.77734375 C22.3649245 5.4607944 23.36730432 7.18449913 24.3125 8.9375 C25.45326556 10.79107994 26.59521177 12.64393371 27.73828125 14.49609375 C28.28436035 15.4279248 28.83043945 16.35975586 29.39306641 17.31982422 C31.7206822 21.20201295 34.34398125 24.83854828 37 28.5 C37.97338481 29.87356323 38.94471039 31.24858785 39.9140625 32.625 C40.4080957 33.32496094 40.90212891 34.02492188 41.41113281 34.74609375 C44.40508211 38.99319577 47.39151712 43.24554079 50.375 47.5 C50.94605469 48.31275391 51.51710938 49.12550781 52.10546875 49.96289062 C52.93111328 51.14141602 52.93111328 51.14141602 53.7734375 52.34375 C54.25216309 53.02630859 54.73088867 53.70886719 55.22412109 54.41210938 C57.85611635 58.24757126 60.4197098 62.1295647 63 66 C63.33 44.22 63.66 22.44 64 0 C70.93 0 77.86 0 85 0 C85.33 36.3 85.66 72.6 86 110 C68 110 68 110 63.85546875 106.4765625 C62.45654297 104.15942383 62.45654297 104.15942383 61.1875 101.625 C60.15585504 99.86902612 59.12060248 98.11516749 58.08203125 96.36328125 C57.57752441 95.46689941 57.07301758 94.57051758 56.55322266 93.64697266 C54.11346311 89.48918062 51.25326077 85.67348849 48.375 81.8125 C43.78852492 75.52944109 39.31530737 69.18000448 34.95263672 62.73950195 C31.09022174 57.05698372 27.05060338 51.56957965 23 46 C22.67 67.12 22.34 88.24 22 110 C14.74 110 7.48 110 0 110 C0 73.7 0 37.4 0 0 Z " fill="#174C83" transform="translate(1511,416)"/>
<path d="M0 0 C34.65 0 69.3 0 105 0 C105 8.58 105 17.16 105 26 C92.46 26.33 79.92 26.66 67 27 C66.67 64.62 66.34 102.24 66 141 C57.09 141 48.18 141 39 141 C38.67 103.38 38.34 65.76 38 27 C25.46 26.67 12.92 26.34 0 26 C0 17.42 0 8.84 0 0 Z " fill="#EF7C22" transform="translate(1172,192)"/>
<path d="M0 0 C1.084021 0.00523682 2.16804199 0.01047363 3.28491211 0.01586914 C4.45473633 0.0190918 5.62456055 0.02231445 6.82983398 0.02563477 C8.0615332 0.03401367 9.29323242 0.04239258 10.56225586 0.05102539 C12.41560547 0.05779297 12.41560547 0.05779297 14.30639648 0.06469727 C17.37089703 0.07652931 20.43530307 0.09301366 23.49975586 0.11352539 C27.66519899 8.88127521 30.70779931 18.01474022 33.87475586 27.17602539 C34.48903185 28.94414551 35.10370374 30.71212814 35.71875 32.47998047 C36.67556301 35.23068466 37.63197644 37.98152312 38.58686829 40.7328949 C40.80628861 47.12748307 43.04060355 53.51669496 45.28491211 59.90258789 C51.15100973 76.59906502 56.98207026 93.29772166 62.49975586 110.11352539 C54.57975586 110.11352539 46.65975586 110.11352539 38.49975586 110.11352539 C37.50975586 107.34977539 36.51975586 104.58602539 35.49975586 101.73852539 C35.18651367 100.86921387 34.87327148 99.99990234 34.55053711 99.10424805 C34.3069043 98.4189502 34.06327148 97.73365234 33.81225586 97.02758789 C33.56088867 96.32585449 33.30952148 95.62412109 33.05053711 94.90112305 C32.49975586 93.11352539 32.49975586 93.11352539 32.49975586 91.11352539 C17.97975586 91.44352539 3.45975586 91.77352539 -11.50024414 92.11352539 C-13.48024414 98.05352539 -15.46024414 103.99352539 -17.50024414 110.11352539 C-25.42024414 110.11352539 -33.34024414 110.11352539 -41.50024414 110.11352539 C-33.44287119 85.68008635 -25.14137947 61.34679536 -16.50024414 37.11352539 C-16.20277283 36.27909912 -15.90530151 35.44467285 -15.59881592 34.58496094 C-13.77989245 29.48595029 -11.95537404 24.38898344 -10.12399292 19.29443359 C-9.54439945 17.6819123 -8.96555462 16.06912171 -8.38748169 14.45605469 C-7.58950269 12.23141765 -6.78770658 10.00819756 -5.98461914 7.78540039 C-5.6277729 6.78830048 -5.6277729 6.78830048 -5.26371765 5.77105713 C-3.22231563 0.14631157 -3.22231563 0.14631157 0 0 Z M9.49975586 26.11352539 C7.82346023 31.09268191 6.15124453 36.0731837 4.48266602 41.05493164 C3.91540486 42.74670653 3.3470635 44.43811964 2.77758789 46.12915039 C1.95551427 48.57089622 1.13743574 51.01395072 0.32006836 53.45727539 C0.06790558 54.20344116 -0.1842572 54.94960693 -0.44406128 55.71838379 C-0.68415924 56.43852661 -0.9242572 57.15866943 -1.17163086 57.90063477 C-1.48473709 58.83329163 -1.48473709 58.83329163 -1.8041687 59.78479004 C-2.82321125 63.19401881 -3.6372368 66.66149601 -4.50024414 70.11352539 C5.39975586 70.11352539 15.29975586 70.11352539 25.49975586 70.11352539 C23.72136721 63.59276699 21.96059483 57.20168668 19.80053711 50.82055664 C19.56062546 50.10365158 19.32071381 49.38674652 19.0735321 48.64811707 C18.3226403 46.40644563 17.56754331 44.1662191 16.81225586 41.92602539 C16.29569773 40.38640646 15.77941966 38.84669354 15.26342773 37.30688477 C14.0120921 33.57467499 12.75698882 29.84375251 11.49975586 26.11352539 C10.83975586 26.11352539 10.17975586 26.11352539 9.49975586 26.11352539 Z " fill="#174C84" transform="translate(1868.500244140625,415.886474609375)"/>
<path d="M0 0 C9.24 0 18.48 0 28 0 C28 37.62 28 75.24 28 114 C45.82 114.33 63.64 114.66 82 115 C82 123.58 82 132.16 82 141 C54.94 141 27.88 141 0 141 C0 94.47 0 47.94 0 0 Z " fill="#EF7D25" transform="translate(1552,192)"/>
<path d="M0 0 C6.93 0 13.86 0 21 0 C22.55658482 1.55658482 22.16309399 3.07867736 22.20532227 5.24438477 C22.22526749 6.14524307 22.24521271 7.04610138 22.26576233 7.97425842 C22.28247482 8.95341721 22.29918732 9.93257599 22.31640625 10.94140625 C22.33718735 11.93881332 22.35796844 12.9362204 22.37937927 13.96385193 C22.44498637 17.16332843 22.50381134 20.36288982 22.5625 23.5625 C22.60567462 25.72592039 22.64928855 27.88933206 22.69335938 30.05273438 C22.80067903 35.36839874 22.90242427 40.68414834 23 46 C25.07593861 43.45712823 27.14949565 40.91232444 29.22265625 38.3671875 C29.80551392 37.65328857 30.38837158 36.93938965 30.9888916 36.20385742 C34.22074614 32.2337158 37.37763696 28.2290529 40.4375 24.125 C41.15808594 23.19429688 41.87867187 22.26359375 42.62109375 21.3046875 C44.55628436 18.73044921 46.16335935 16.03881874 47.78515625 13.2578125 C55.45809349 0.92060344 55.45809349 0.92060344 62.07714844 -0.79980469 C69.42901315 -1.55726954 76.6957375 -1.00659448 84 0 C81.20377958 5.18728776 78.05844703 9.65022315 74.3125 14.1875 C73.2317257 15.51843839 72.15230976 16.85048091 71.07421875 18.18359375 C70.54747559 18.83440918 70.02073242 19.48522461 69.47802734 20.15576172 C66.73658664 23.57644937 64.11616823 27.08204766 61.51953125 30.61328125 C59.48317872 33.37966316 57.37672865 36.08632557 55.26171875 38.79296875 C53.94498327 40.50755972 52.62857762 42.22240403 51.3125 43.9375 C50.66297363 44.75508789 50.01344727 45.57267578 49.34423828 46.41503906 C48.75239746 47.19459961 48.16055664 47.97416016 47.55078125 48.77734375 C47.01106689 49.47077881 46.47135254 50.16421387 45.9152832 50.87866211 C44.71964829 53.04034236 44.71964829 53.04034236 45.71801758 55.59082031 C47.32324223 58.60745654 49.2504129 61.13442014 51.375 63.8125 C52.27835152 64.96275092 53.18064799 66.11383102 54.08203125 67.265625 C54.55721191 67.87083984 55.03239258 68.47605469 55.52197266 69.09960938 C58.07924765 72.38765506 60.5694979 75.7256145 63.0625 79.0625 C64.07811138 80.4205831 65.0937362 81.77865615 66.109375 83.13671875 C66.84124023 84.11584229 66.84124023 84.11584229 67.58789062 85.11474609 C68.892935 86.85706156 70.20287125 88.59552059 71.515625 90.33203125 C85 108.19653486 85 108.19653486 85 110 C64.52525608 112.82160782 64.52525608 112.82160782 57.68359375 108.55566406 C53.50148513 104.53196865 50.58861552 99.6349989 47.64648438 94.66992188 C44.79388556 90.04417741 41.42988251 85.80772647 38.125 81.5 C36.93867607 79.90731274 35.75374063 78.31359014 34.5703125 76.71875 C30.80485034 71.74207791 26.89851606 66.87314507 23 62 C22.67 77.84 22.34 93.68 22 110 C14.74 110 7.48 110 0 110 C0 73.7 0 37.4 0 0 Z " fill="#184D85" transform="translate(2048,416)"/>
<path d="M0 0 C5.65965766 4.7131287 8.91652262 9.37988887 12 16 C9.21251481 17.67373751 6.41935573 19.33776267 3.625 21 C2.8309375 21.47695313 2.036875 21.95390625 1.21875 22.4453125 C0.07792969 23.12207031 0.07792969 23.12207031 -1.0859375 23.8125 C-1.7876709 24.23144531 -2.4894043 24.65039062 -3.21240234 25.08203125 C-5 26 -5 26 -7 26 C-8.04296875 24.390625 -8.04296875 24.390625 -9.1875 22.25 C-12.12205756 17.34460053 -15.39437355 15.08096246 -20.94140625 13.41796875 C-25.94556767 12.40194357 -30.55666311 12.49215924 -35.375 14.1875 C-38.39254289 16.27104152 -39.67670714 17.57500673 -41 21 C-40.93270591 24.83576287 -40.75701294 27.10242314 -38.25390625 30.0703125 C-35.8735653 32.10824739 -33.9025608 33.15231945 -31 34.3125 C-29.94941406 34.73402344 -28.89882812 35.15554688 -27.81640625 35.58984375 C-24.95090967 36.67477737 -22.05956338 37.6617173 -19.15234375 38.62890625 C5.08617109 46.70612238 5.08617109 46.70612238 11.87890625 57.69140625 C15.66244874 65.4826035 16.60344818 74.28874902 14.2421875 82.69921875 C13.29024806 84.90666887 12.22717349 86.93475681 11 89 C10.443125 90.051875 9.88625 91.10375 9.3125 92.1875 C2.83797143 100.06192664 -6.91305024 104.15080232 -16.8359375 105.53515625 C-31.06629287 106.88896303 -44.55762564 105.03084729 -56.25 96.375 C-62.11815431 91.44020567 -66.24723759 85.5002844 -68 78 C-65.21251481 76.32626249 -62.41935573 74.66223733 -59.625 73 C-58.8309375 72.52304687 -58.036875 72.04609375 -57.21875 71.5546875 C-56.45820312 71.10351562 -55.69765625 70.65234375 -54.9140625 70.1875 C-53.8614624 69.55908203 -53.8614624 69.55908203 -52.78759766 68.91796875 C-51 68 -51 68 -49 68 C-47.921875 69.57421875 -47.921875 69.57421875 -46.75 71.6875 C-43.0595546 77.80216759 -39.01663728 81.10899137 -32 83 C-29.30240872 83.23600493 -26.75606692 83.38070604 -24.0625 83.375 C-23.00180298 83.3747583 -23.00180298 83.3747583 -21.91967773 83.37451172 C-16.43460581 83.25376515 -13.19768958 82.48101087 -9 79 C-7.82364703 76.64729407 -7.86640641 75.179248 -7.875 72.5625 C-7.87242188 71.78003906 -7.86984375 70.99757813 -7.8671875 70.19140625 C-7.91617452 67.82104653 -7.91617452 67.82104653 -9 65 C-11.26105817 63.87682413 -11.26105817 63.87682413 -14 63 C-15.37091797 62.44892578 -15.37091797 62.44892578 -16.76953125 61.88671875 C-22.16979845 59.75850048 -27.55163553 57.79802432 -33.12060547 56.16918945 C-45.38736262 52.56856442 -55.46292766 47.49623067 -62 36 C-64.97983718 27.90225037 -64.86937148 19.11149246 -62 11 C-57.08969587 1.24400101 -49.17342719 -4.43838725 -39 -8 C-24.87955817 -11.5418384 -11.59459412 -8.39281895 0 0 Z " fill="#174C84" transform="translate(1189,423)"/>
<path d="M0 0 C22.11 0 44.22 0 67 0 C67 6.93 67 13.86 67 21 C52.15 21 37.3 21 22 21 C22 28.59 22 36.18 22 44 C35.53 44 49.06 44 63 44 C63 50.93 63 57.86 63 65 C49.47 65 35.94 65 22 65 C22 73.25 22 81.5 22 90 C37.18 90 52.36 90 68 90 C68 96.6 68 103.2 68 110 C45.56 110 23.12 110 0 110 C0 73.7 0 37.4 0 0 Z " fill="#174B84" transform="translate(1043,416)"/>
<path d="M0 0 C22.11 0 44.22 0 67 0 C67 6.93 67 13.86 67 21 C52.15 21.33 37.3 21.66 22 22 C21.67 29.26 21.34 36.52 21 44 C23.94808594 43.98839844 26.89617187 43.97679687 29.93359375 43.96484375 C32.77644747 43.95705384 35.61930002 43.9509767 38.4621582 43.94506836 C40.44393441 43.94002733 42.42570689 43.93319462 44.4074707 43.92456055 C47.24952109 43.91248485 50.09152247 43.90676955 52.93359375 43.90234375 C53.82525742 43.89718246 54.71692108 43.89202118 55.63560486 43.88670349 C57.75740601 43.88650823 59.8791078 43.9378997 62 44 C66.95535625 48.95535625 63 57.99206799 63 65 C49.47 65.33 35.94 65.66 22 66 C22 73.59 22 81.18 22 89 C37.18 89.33 52.36 89.66 68 90 C68 96.6 68 103.2 68 110 C45.56 110 23.12 110 0 110 C0 73.7 0 37.4 0 0 Z " fill="#154A83" transform="translate(1428,416)"/>
<path d="M0 0 C7.59 0 15.18 0 23 0 C29.23732353 18.50967902 35.39401701 37.04283146 41.32095337 55.65457153 C41.89669253 57.46204172 42.47381149 59.26907301 43.05233765 61.07565308 C43.86612597 63.6193699 44.67419049 66.16483167 45.48046875 68.7109375 C45.721604 69.46261703 45.96273926 70.21429657 46.21118164 70.98875427 C47.46552844 74.97682218 48.42639415 78.84370842 49 83 C49.66 83 50.32 83 51 83 C51.25885986 81.74727295 51.51771973 80.4945459 51.78442383 79.20385742 C53.02949309 73.61313743 54.71608668 68.19407763 56.44921875 62.73828125 C56.78492386 61.67119431 57.12062897 60.60410736 57.46650696 59.50468445 C58.53664037 56.10616462 59.61200376 52.70932602 60.6875 49.3125 C61.39031362 47.08278933 62.09279027 44.85297241 62.79492188 42.62304688 C64.51793318 37.15431084 66.24841113 31.68797002 67.980896 26.222229 C69.0069053 22.97816665 70.02673283 19.73221121 71.04541016 16.48583984 C71.68256005 14.46319815 72.31976448 12.44057363 72.95703125 10.41796875 C73.25042892 9.47858963 73.5438266 8.53921051 73.84611511 7.57136536 C74.11579605 6.71790024 74.38547699 5.86443512 74.66333008 4.98510742 C74.89844803 4.23613693 75.13356598 3.48716644 75.37580872 2.71549988 C76 1 76 1 77 0 C78.70772358 -0.08713831 80.41898649 -0.10700007 82.12890625 -0.09765625 C83.68061523 -0.09282227 83.68061523 -0.09282227 85.26367188 -0.08789062 C86.35228516 -0.07951172 87.44089844 -0.07113281 88.5625 -0.0625 C90.2012207 -0.05573242 90.2012207 -0.05573242 91.87304688 -0.04882812 C94.58208495 -0.03699826 97.29101599 -0.02051543 100 0 C98.47737144 8.22407403 95.72478399 15.9845874 92.97937012 23.86068726 C91.50435366 28.09358828 90.04620018 32.33230404 88.5859375 36.5703125 C88.28635132 37.43849106 87.98676514 38.30666962 87.67810059 39.20115662 C84.64236074 48.01013179 81.68707842 56.84522323 78.75 65.6875 C78.50433289 66.42654572 78.25866577 67.16559143 78.0055542 67.92703247 C76.8009218 71.55113504 75.59731382 75.17557608 74.39453125 78.80029297 C72.18658199 85.45249231 69.96756982 92.10100298 67.75 98.75 C66.5125 102.4625 65.275 106.175 64 110 C54.76 110 45.52 110 36 110 C31.20800879 96.35417613 26.47520895 82.69048116 21.8125 69 C21.49350739 68.06420105 21.17451477 67.1284021 20.84585571 66.16424561 C14.84831514 48.5649327 8.94207402 30.93595279 3.09057617 13.28759766 C2.37223576 11.12212375 1.62813383 8.96500028 0.85668945 6.81787109 C0 4 0 4 0 0 Z " fill="#184C84" transform="translate(932,416)"/>
<path d="M0 0 C9.24 0 18.48 0 28 0 C28 46.53 28 93.06 28 141 C18.76 141 9.52 141 0 141 C0 94.47 0 47.94 0 0 Z " fill="#EF7D24" transform="translate(1949,192)"/>
<path d="M0 0 C26.73 0 53.46 0 81 0 C81 6.93 81 13.86 81 21 C71.1 21 61.2 21 51 21 C51 50.37 51 79.74 51 110 C43.74 110 36.48 110 29 110 C29 80.63 29 51.26 29 21 C19.43 21 9.86 21 0 21 C0 14.07 0 7.14 0 0 Z " fill="#184C84" transform="translate(1609,416)"/>
<path d="M0 0 C26.73 0 53.46 0 81 0 C81 6.93 81 13.86 81 21 C71.1 21 61.2 21 51 21 C51 50.37 51 79.74 51 110 C44.07 110 37.14 110 30 110 C30 80.63 30 51.26 30 21 C20.1 21 10.2 21 0 21 C0 14.07 0 7.14 0 0 Z " fill="#164983" transform="translate(1206,416)"/>
<path d="M0 0 C7.26 0 14.52 0 22 0 C22 36.3 22 72.6 22 110 C14.74 110 7.48 110 0 110 C0 73.7 0 37.4 0 0 Z " fill="#1A5086" transform="translate(793,416)"/>
<path d="M0 0 C6.93 0 13.86 0 21 0 C21.33 36.3 21.66 72.6 22 110 C16.06 110 10.12 110 4 110 C4.33 108.68 4.66 107.36 5 106 C5 106.66 5 107.32 5 108 C9.62 108 14.24 108 19 108 C19 72.69 19 37.38 19 1 C12.73 1 6.46 1 0 1 C0 0.67 0 0.34 0 0 Z " fill="#1C317D" transform="translate(1575,416)"/>
<path d="M0 0 C0.66 0 1.32 0 2 0 C2 35.31 2 70.62 2 107 C7.94 107 13.88 107 20 107 C20 107.66 20 108.32 20 109 C13.4 109 6.8 109 0 109 C0 73.03 0 37.06 0 0 Z " fill="#14437F" transform="translate(794,417)"/>
<path d="M0 0 C22.11 0 44.22 0 67 0 C67 6.93 67 13.86 67 21 C51.82 21.33 36.64 21.66 21 22 C21 21.01 21 20.02 21 19 C35.19 18.67 49.38 18.34 64 18 C64.33 12.39 64.66 6.78 65 1 C43.55 1 22.1 1 0 1 C0 0.67 0 0.34 0 0 Z " fill="#276092" transform="translate(1428,416)"/>
<path d="M0 0 C0 3.42209206 -0.62021276 4.32468594 -2.44921875 7.1328125 C-2.96806641 7.93976563 -3.48691406 8.74671875 -4.02148438 9.578125 C-4.57126953 10.41859375 -5.12105469 11.2590625 -5.6875 12.125 C-9.69697247 18.30241324 -13.51153014 24.51150467 -17 31 C-18.32 31 -19.64 31 -21 31 C-22.34164079 31.2981424 -23.67851173 31.62243192 -25 32 C-17.8042482 20.52323131 -9.17883789 9.94154935 0 0 Z " fill="#EF8125" transform="translate(116,387)"/>
<path d="M0 0 C0.33 0 0.66 0 1 0 C1.33 21.45 1.66 42.9 2 65 C-4.93 65 -11.86 65 -19 65 C-19 64.34 -19 63.68 -19 63 C-12.73 63 -6.46 63 0 63 C0 42.21 0 21.42 0 0 Z " fill="#1E3F7E" transform="translate(855,461)"/>
<path d="M0 0 C6.39651259 -0.15366997 12.27698902 0.35153626 18.5625 1.5 C19.38041016 1.64308594 20.19832031 1.78617188 21.04101562 1.93359375 C23.02854504 2.28228312 25.01445896 2.64016085 27 3 C27 3.66 27 4.32 27 5 C27.99 5.33 28.98 5.66 30 6 C29 8 29 8 27.24023438 8.71020508 C24.47603258 9.06778001 22.78801944 8.53916328 20.15625 7.63671875 C19.23972656 7.32669922 18.32320312 7.01667969 17.37890625 6.69726562 C16.42886719 6.36404297 15.47882812 6.03082031 14.5 5.6875 C13.54996094 5.36587891 12.59992187 5.04425781 11.62109375 4.71289062 C7.61230614 3.33997954 3.75886289 1.97080771 0 0 Z " fill="#EF842F" transform="translate(562,189)"/>
<path d="M0 0 C2 3 2 3 3 7 C-4.92 7 -12.84 7 -21 7 C-21.33 5.68 -21.66 4.36 -22 3 C-21.01 3.33 -20.02 3.66 -19 4 C-17.52034074 4.14573058 -16.03596157 4.24663268 -14.55078125 4.31640625 C-13.70322266 4.35830078 -12.85566406 4.40019531 -11.98242188 4.44335938 C-11.10134766 4.48267578 -10.22027344 4.52199219 -9.3125 4.5625 C-7.97348633 4.62727539 -7.97348633 4.62727539 -6.60742188 4.69335938 C-4.40509892 4.79935353 -2.20266527 4.90142051 0 5 C0 3.35 0 1.7 0 0 Z " fill="#1C357D" transform="translate(1928,519)"/>
<path d="M0 0 C1.0625 1.8125 1.0625 1.8125 2 4 C1.67 4.99 1.34 5.98 1 7 C-6.92 7 -14.84 7 -23 7 C-22.34 5.68 -21.68 4.36 -21 3 C-21 3.66 -21 4.32 -21 5 C-14.4 5 -7.8 5 -1 5 C-0.67 3.35 -0.34 1.7 0 0 Z " fill="#1E367D" transform="translate(1850,519)"/>
<path d="M0 0 C-3.84344382 2.24538034 -7.9638019 3.1026736 -12.25 4.125 C-12.99507812 4.30675781 -13.74015625 4.48851562 -14.5078125 4.67578125 C-16.3375026 5.12147499 -18.16861575 5.56131959 -20 6 C-20 5.01 -20 4.02 -20 3 C-20.99 2.67 -21.98 2.34 -23 2 C-15.27279225 0.76892281 -7.8316181 -0.2700558 0 0 Z " fill="#F08935" transform="translate(178,189)"/>
<path d="M0 0 C0.66 0 1.32 0 2 0 C2 6.6 2 13.2 2 20 C1.01 19.67 0.02 19.34 -1 19 C-1.02683987 16.02077407 -1.04676037 13.04178705 -1.0625 10.0625 C-1.07087891 9.21236328 -1.07925781 8.36222656 -1.08789062 7.48632812 C-1.09111328 6.67744141 -1.09433594 5.86855469 -1.09765625 5.03515625 C-1.10289307 4.2862915 -1.10812988 3.53742676 -1.11352539 2.76586914 C-1 1 -1 1 0 0 Z " fill="#26598C" transform="translate(1688,417)"/>
<path d="M0 0 C5.61 0 11.22 0 17 0 C16 2 16 2 14.4375 2.625 C9.65265527 3.36112996 4.63997108 3.54665703 0 2 C0 1.34 0 0.68 0 0 Z " fill="#2D4D8A" transform="translate(1156,526)"/>
<path d="M0 0 C4.53847198 1.34927545 8.31932246 3.19159348 12.375 5.625 C13.43460937 6.25664063 14.49421875 6.88828125 15.5859375 7.5390625 C16.38257813 8.02117188 17.17921875 8.50328125 18 9 C17.67 9.66 17.34 10.32 17 11 C11.39 8.03 5.78 5.06 0 2 C0 1.34 0 0.68 0 0 Z " fill="#224B86" transform="translate(313,507)"/>
<path d="M0 0 C5.28 0.33 10.56 0.66 16 1 C16 1.66 16 2.32 16 3 C10.39 3 4.78 3 -1 3 C-0.67 2.01 -0.34 1.02 0 0 Z " fill="#1D307B" transform="translate(904,523)"/>
<path d="M0 0 C0 3.88291746 -1.37860494 5.46752535 -3.5 8.6875 C-4.1496875 9.68136719 -4.799375 10.67523438 -5.46875 11.69921875 C-5.9740625 12.45847656 -6.479375 13.21773438 -7 14 C-7.33 13.34 -7.66 12.68 -8 12 C-8.66 11.67 -9.32 11.34 -10 11 C-6.7 7.37 -3.4 3.74 0 0 Z " fill="#F18C35" transform="translate(116,387)"/>
<path d="M0 0 C0.66 0 1.32 0 2 0 C2.99 3.63 3.98 7.26 5 11 C4.01 11.495 4.01 11.495 3 12 C-0.42857143 4.71428571 -0.42857143 4.71428571 0 0 Z " fill="#2C508B" transform="translate(1892,419)"/>
<path d="M0 0 C0.66 0.99 1.32 1.98 2 3 C1.0479279 4.00596297 0.08812654 5.00461563 -0.875 6 C-1.40867187 6.556875 -1.94234375 7.11375 -2.4921875 7.6875 C-4 9 -4 9 -6 9 C-4.68775452 5.06326356 -3.08089673 2.77280706 0 0 Z " fill="#2E5D90" transform="translate(1135,423)"/>
<path d="M0 0 C3.47132095 1.40929697 4.88093274 2.90605083 6.75 6.125 C7.39195312 7.21167969 7.39195312 7.21167969 8.046875 8.3203125 C8.51867187 9.15175781 8.51867187 9.15175781 9 10 C8.01 10 7.02 10 6 10 C4.39453125 8.3203125 4.39453125 8.3203125 2.8125 6.125 C2.01779297 5.04605469 2.01779297 5.04605469 1.20703125 3.9453125 C0 2 0 2 0 0 Z " fill="#29548B" transform="translate(851,418)"/>
<path d="M0 0 C0.33 0 0.66 0 1 0 C1.6875 2.75 1.6875 2.75 2 6 C0.5625 8.375 0.5625 8.375 -1 10 C-3 7 -3 7 -2.75 5 C-2 3 -2 3 0 0 Z " fill="#F08733" transform="translate(102,403)"/>
<path d="M0 0 C3 1 3 1 4.6875 3.75 C5.93950669 6.85020705 6.28970125 8.71671912 6 12 C2.82781157 8.37464179 1.57097403 4.48849722 0 0 Z " fill="#F08732" transform="translate(792,289)"/>
<path d="M0 0 C5.45769811 -0.11138159 10.61509359 0.08342019 16 1 C16 1.33 16 1.66 16 2 C10.03654233 3.0006709 5.71271093 3.0662997 0 1 C0 0.67 0 0.34 0 0 Z " fill="#F18F42" transform="translate(562,189)"/>
<path d="M0 0 C2.40072955 2.88087546 4.47291037 5.56404834 6 9 C5.01 9 4.02 9 3 9 C2.67 9.66 2.34 10.32 2 11 C1.34 7.37 0.68 3.74 0 0 Z " fill="#F18D3C" transform="translate(651,423)"/>
<path d="M0 0 C3.28788824 3.11016455 5.83735988 6.01618925 8 10 C7.01 10 6.02 10 5 10 C3.61328125 8.57421875 3.61328125 8.57421875 2.3125 6.6875 C1.87550781 6.07261719 1.43851563 5.45773437 0.98828125 4.82421875 C0 3 0 3 0 0 Z " fill="#27538A" transform="translate(883,462)"/>
<path d="M0 0 C3.96 1.98 3.96 1.98 8 4 C8 4.99 8 5.98 8 7 C1.125 3.375 1.125 3.375 0 0 Z " fill="#2C538B" transform="translate(1799,419)"/>
<path d="M0 0 C0.66 0.33 1.32 0.66 2 1 C-0.31 3.64 -2.62 6.28 -5 9 C-5.66 8.34 -6.32 7.68 -7 7 C-4.69 4.69 -2.38 2.38 0 0 Z " fill="#F08736" transform="translate(578,413)"/>
<path d="M0 0 C1.95418308 2.93127462 2.64700993 4.55834679 3 8 C2.34 8.66 1.68 9.32 1 10 C0.63883954 8.5225254 0.28624952 7.04295325 -0.0625 5.5625 C-0.25972656 4.73878906 -0.45695313 3.91507812 -0.66015625 3.06640625 C-0.82837891 2.04353516 -0.82837891 2.04353516 -1 1 C-0.67 0.67 -0.34 0.34 0 0 Z " fill="#27548C" transform="translate(976,484)"/>
<path d="M0 0 C1.17539996 0.92652701 2.34010577 1.86663387 3.5 2.8125 C4.1496875 3.33457031 4.799375 3.85664063 5.46875 4.39453125 C7 6 7 6 7 9 C3.99234114 6.15063897 1.72154788 3.76488042 0 0 Z " fill="#F0852D" transform="translate(153,405)"/>
<path d="M0 0 C4.21912747 0.4794463 6.79663178 1.16625119 10 4 C7 5 7 5 5.17578125 4.22265625 C3.45052083 3.1484375 1.72526042 2.07421875 0 1 C0 0.67 0 0.34 0 0 Z " fill="#EF842F" transform="translate(832,302)"/>
<path d="M0 0 C1.28132813 0.00902344 2.56265625 0.01804688 3.8828125 0.02734375 C4.87023438 0.03894531 5.85765625 0.05054688 6.875 0.0625 C6.875 0.3925 6.875 0.7225 6.875 1.0625 C5.61042969 1.15337891 5.61042969 1.15337891 4.3203125 1.24609375 C3.22460938 1.32988281 2.12890625 1.41367188 1 1.5 C-0.09054687 1.58121094 -1.18109375 1.66242188 -2.3046875 1.74609375 C-5.07228971 1.89251703 -5.07228971 1.89251703 -7.125 3.0625 C-7.785 2.4025 -8.445 1.7425 -9.125 1.0625 C-6.12186252 -0.43906874 -3.33432478 -0.03031204 0 0 Z " fill="#EF8134" transform="translate(1877.125,213.9375)"/>
<path d="M0 0 C1.73543126 2.60314689 2.61121812 3.98694043 3 7 C2.34 7.66 1.68 8.32 1 9 C-1.09230769 4.56923077 -1.09230769 4.56923077 -0.625 1.6875 C-0.41875 1.130625 -0.2125 0.57375 0 0 Z " fill="#2C548B" transform="translate(1910,468)"/>
<path d="M0 0 C2.96404505 2.80804268 5.44499019 5.18315774 7 9 C3.64564078 7.61198929 1.88709697 6.11371 0 3 C0 2.01 0 1.02 0 0 Z " fill="#2B518B" transform="translate(869,442)"/>
<path d="M0 0 C0.66 0.33 1.32 0.66 2 1 C1.34 3.64 0.68 6.28 0 9 C-0.66 8.67 -1.32 8.34 -2 8 C-1.125 2.25 -1.125 2.25 0 0 Z " fill="#2C598E" transform="translate(1022,440)"/>
<path d="M0 0 C1.98 0 3.96 0 6 0 C5.67 1.32 5.34 2.64 5 4 C3.35 3.67 1.7 3.34 0 3 C0 2.01 0 1.02 0 0 Z " fill="#EF7D1C" transform="translate(581,192)"/>
<path d="M0 0 C-0.33 1.32 -0.66 2.64 -1 4 C-3.97 3.505 -3.97 3.505 -7 3 C-3.375 0 -3.375 0 0 0 Z " fill="#F08A37" transform="translate(396,606)"/>
<path d="M0 0 C0.66 0 1.32 0 2 0 C1.25 5.75 1.25 5.75 -1 8 C-2.2077558 4.37673261 -1.54311128 3.35853631 0 0 Z " fill="#25558B" transform="translate(1846,471)"/>
<path d="M0 0 C2.0625 1.75 2.0625 1.75 4 4 C3.75 6.25 3.75 6.25 3 8 C1.02 4.535 1.02 4.535 -1 1 C-0.67 0.67 -0.34 0.34 0 0 Z " fill="#2E558C" transform="translate(1537,462)"/>
<path d="M0 0 C2.99324263 1.0975223 3.84610901 1.67682892 5.25 4.625 C5.4975 5.40875 5.745 6.1925 6 7 C5.01 7 4.02 7 3 7 C2.67 5.35 2.34 3.7 2 2 C1.34 2 0.68 2 0 2 C0 1.34 0 0.68 0 0 Z " fill="#30548D" transform="translate(1195,432)"/>
<path d="M0 0 C0.66 0.66 1.32 1.32 2 2 C-2.75 6 -2.75 6 -5 6 C-3.63016497 2.83884224 -3.0109362 2.0072908 0 0 Z " fill="#275088" transform="translate(1141,419)"/>
<path d="M0 0 C0 0.99 0 1.98 0 3 C-0.99 3.495 -0.99 3.495 -2 4 C-1.34 2.68 -0.68 1.36 0 0 Z " fill="#F39C58" transform="translate(119,383)"/>
<path d="M0 0 C2 1 2 1 2 1 Z " fill="#F5B083" transform="translate(559,188)"/>
<path d="M0 0 C2 1 2 1 2 1 Z " fill="#F5B386" transform="translate(179,188)"/>
<path d="" fill="#F4A974" transform="translate(0,0)"/>
<path d="" fill="#F5B385" transform="translate(0,0)"/>
</svg>
