<?xml version="1.0" encoding="UTF-8"?>
<svg version="1.1" xmlns="http://www.w3.org/2000/svg" width="730" height="709">
<path d="M0 0 C240.9 0 481.8 0 730 0 C730 233.97 730 467.94 730 709 C489.1 709 248.2 709 0 709 C0 475.03 0 241.06 0 0 Z " fill="#FEFEFD" transform="translate(0,0)"/>
<path d="M0 0 C5.89615522 -0.1040498 11.44059707 0.13140926 17.25 1.125 C18.00941895 1.25334229 18.76883789 1.38168457 19.55126953 1.51391602 C29.23133882 3.26260533 38.61347464 6.09791471 48 9 C49.22589844 9.37511719 50.45179688 9.75023437 51.71484375 10.13671875 C56.76465931 11.74782006 61.51769852 13.54425737 66.18359375 16.0703125 C68.02311733 17.06236138 68.02311733 17.06236138 70.18359375 17.7734375 C92.7206202 27.58845318 110.74207442 47.48918995 120 70 C128.73988103 96.24760175 126.36728651 125.45437337 116.73339844 151.03955078 C116.07649677 152.79551629 115.46120107 154.56691525 114.8515625 156.33984375 C100.31895153 197.20637036 67.4167754 241.5259848 34.04296875 269.20703125 C31.28580512 271.62679819 28.75223951 274.25564853 26.1875 276.875 C21.65265218 281.47728842 16.94538072 285.65821844 11.87890625 289.6796875 C9.27942793 291.77478943 6.76800734 293.9347183 4.26098633 296.13745117 C-9.01342074 307.76329022 -23.36347853 318.16202462 -38 328 C-39.13791992 328.77077881 -39.13791992 328.77077881 -40.29882812 329.55712891 C-63.6704551 345.38035204 -87.78095044 359.64692946 -112.75 372.8125 C-113.73250732 373.33448975 -114.71501465 373.85647949 -115.72729492 374.39428711 C-116.63713135 374.86874268 -117.54696777 375.34319824 -118.484375 375.83203125 C-119.28584961 376.25202393 -120.08732422 376.6720166 -120.91308594 377.10473633 C-123 378 -123 378 -126 378 C-126 378.66 -126 379.32 -126 380 C-126.7734375 380.31453125 -127.546875 380.6290625 -128.34375 380.953125 C-135.23730491 383.76547775 -135.23730491 383.76547775 -141.9375 387 C-146.28384673 389.24010889 -150.82946376 390.87304495 -155.40234375 392.58984375 C-158.51678016 393.81059461 -161.5553417 395.11645812 -164.60253906 396.4909668 C-173.72501171 400.60562468 -183.03343689 403.92522094 -192.50585938 407.13818359 C-194.83444551 407.94279489 -197.14479528 408.78378943 -199.453125 409.64453125 C-215.02780806 415.39549609 -231.05728062 419.6053997 -247.07177734 423.93334961 C-249.46656657 424.58096239 -251.85631944 425.24078749 -254.24462891 425.91235352 C-259.55814396 427.40463061 -264.79392583 428.61306114 -270.25 429.4375 C-271.82051276 429.68493016 -273.39081588 429.93369356 -274.9609375 430.18359375 C-275.78045898 430.31362793 -276.59998047 430.44366211 -277.44433594 430.57763672 C-280.06593837 431.01089734 -282.67695195 431.48556382 -285.2890625 431.97265625 C-321.41603928 438.67957149 -359.61726705 441.69971583 -396 435 C-397.01320313 434.81775879 -398.02640625 434.63551758 -399.0703125 434.44775391 C-432.87220964 428.23447521 -464.84294358 415.75823157 -486.25 387.6875 C-487.52982191 385.81166954 -488.7788664 383.91455393 -490 382 C-490.68964844 380.93910156 -491.37929688 379.87820313 -492.08984375 378.78515625 C-506.63090705 355.00291766 -505.6822644 323.81016093 -499.64160156 297.51269531 C-498.18513737 291.80876477 -496.17530172 286.40838651 -493.85058594 281.00732422 C-492.94291061 278.86527298 -492.09806454 276.70449204 -491.2578125 274.53515625 C-479.02407281 243.4890036 -458.73709317 216.96161833 -437 192 C-437 196.03781892 -438.55682404 197.44408334 -440.9375 200.6875 C-445.83201822 207.53417274 -449.98672428 214.67589232 -453.96533203 222.0859375 C-454.90215862 223.81900038 -455.86930554 225.53558856 -456.83984375 227.25 C-462.93304573 238.52449619 -466.42249965 250.74470203 -470 263 C-470.21205078 263.70157227 -470.42410156 264.40314453 -470.64257812 265.12597656 C-477.16622125 287.16433555 -473.02835069 311.58390456 -462.75 331.6875 C-453.91583927 347.3905546 -441.65226673 357.72743993 -426 366 C-425.19175781 366.46148438 -424.38351562 366.92296875 -423.55078125 367.3984375 C-398.72836834 381.00094649 -368.25233175 383.22372848 -340.5625 383.1875 C-339.48107727 383.18759064 -339.48107727 383.18759064 -338.37780762 383.18768311 C-329.13605927 383.17669259 -320.07653733 382.91311011 -310.921875 381.55859375 C-307.9966134 381.14194792 -305.14336052 380.8252986 -302.203125 380.59765625 C-288.20907341 379.51218609 -274.69842617 377.02508864 -261 374 C-259.75331543 373.72470459 -259.75331543 373.72470459 -258.48144531 373.44384766 C-245.3232148 370.50223734 -232.28052604 367.11223323 -219.421875 363.05078125 C-216.97815643 362.30036995 -214.54279226 361.59042291 -212.078125 360.91796875 C-202.46472508 358.2659184 -193.44706449 354.81963845 -184.3046875 350.84375 C-180.9922931 349.40594456 -177.6660044 348.11333534 -174.25 346.9375 C-168.15144191 344.77528395 -162.35537648 342.01039278 -156.52978516 339.21191406 C-153.4866204 337.75406135 -150.43638795 336.31138284 -147.38671875 334.8671875 C-145.58654025 334.01011722 -143.78636646 333.15303623 -141.98681641 332.29464722 C-140.23209769 331.45874517 -138.47544732 330.62690186 -136.71875 329.79516602 C-130.69805818 326.91025119 -124.88386213 323.88015993 -119.2121582 320.35473633 C-116.84729375 318.90648196 -114.43826149 317.57039324 -112 316.25 C-84.3437345 301.27114816 -58.60175444 284.66752208 -34 265 C-32.98550781 264.18917969 -31.97101563 263.37835938 -30.92578125 262.54296875 C-11.81068149 247.05555216 7.64315189 230.87243215 22.97265625 211.5234375 C24.82341414 209.21979666 26.74841539 207.04719785 28.75 204.875 C39.61337316 192.79249078 49.8793121 179.22812225 57.4609375 164.85546875 C59.59774078 160.89099364 61.94075736 157.05702376 64.2890625 153.21484375 C78.09555839 127.27250101 86.54265695 93.26507535 78.12890625 64.4765625 C77.75636719 63.32929688 77.38382813 62.18203125 77 61 C76.69964844 59.99710938 76.39929688 58.99421875 76.08984375 57.9609375 C68.78145344 35.49791966 50.44819857 22.11438754 30.46459961 11.53662109 C22.58597936 7.5544368 14.39937338 4.92309662 5.89672852 2.61914062 C3.80832049 1.93743091 1.94048489 1.02428706 0 0 Z " fill="#EF7E25" transform="translate(552,186)"/>
<path d="M0 0 C0.85486496 -0.01283524 1.70972992 -0.02567047 2.59049988 -0.03889465 C3.97329887 -0.04997505 3.97329887 -0.04997505 5.3840332 -0.0612793 C6.33744095 -0.06935104 7.29084869 -0.07742279 8.27314758 -0.08573914 C10.29308254 -0.09957254 12.3130408 -0.11029802 14.33300781 -0.11816406 C17.4058128 -0.13533598 20.47753022 -0.17922415 23.55004883 -0.22338867 C25.51553573 -0.23351969 27.48103176 -0.24203451 29.4465332 -0.2487793 C30.81415047 -0.27504143 30.81415047 -0.27504143 32.20939636 -0.30183411 C39.18809263 -0.27838356 44.55307196 1.30400206 49.8059082 6.02856445 C50.26094727 6.61379883 50.71598633 7.1990332 51.18481445 7.80200195 C51.65790039 8.39239258 52.13098633 8.9827832 52.6184082 9.59106445 C55.10662246 13.08661805 54.8858594 16.16761448 54.87036228 20.31035805 C54.87151613 21.05723853 54.87266997 21.80411901 54.87385878 22.57363224 C54.87652747 25.10230214 54.87200121 27.63090968 54.86756897 30.15957642 C54.86800462 31.98033964 54.86887941 33.8011028 54.87015814 35.62186563 C54.87240431 40.64544892 54.86838014 45.66901107 54.86338007 50.69259167 C54.85907751 56.10228667 54.86052186 61.5119804 54.86128235 66.92167664 C54.86180771 76.30107533 54.85865966 85.68046709 54.85304451 95.05986404 C54.84493112 108.62104108 54.84231446 122.18221474 54.84105652 135.74339394 C54.83886575 157.7434006 54.83220497 179.74340356 54.82275391 201.7434082 C54.81358044 223.11938461 54.80649929 244.49535992 54.80224609 265.87133789 C54.80198337 267.18807749 54.80172065 268.5048171 54.80144996 269.8614579 C54.80014496 276.46689205 54.79888125 283.0723262 54.79763806 289.67776036 C54.78726466 344.51084345 54.76964565 399.34392252 54.74731445 454.17700195 C53.13930855 453.69870351 51.53162205 453.21933115 49.92407227 452.73950195 C49.02875793 452.47266602 48.1334436 452.20583008 47.21099854 451.9309082 C34.4591333 448.02873951 22.56962911 441.2270531 10.74731445 435.17700195 C9.40636719 434.49202637 9.40636719 434.49202637 8.03833008 433.79321289 C5.49958356 432.49165567 2.96609827 431.18050568 0.43481445 429.86450195 C-0.68292358 429.28889526 -0.68292358 429.28889526 -1.82324219 428.70166016 C-3.21667308 427.97018348 -4.59834852 427.21560685 -5.96374446 426.43304586 C-8.22245392 425.14070821 -8.22245392 425.14070821 -10.59862345 424.19858027 C-13.41483539 422.80613796 -15.19289044 421.56831435 -17.25268555 419.17700195 C-18.63091448 413.83223818 -18.44693576 408.51996731 -18.3618927 403.04455566 C-18.36868246 401.3648399 -18.37941384 399.68513622 -18.39374751 398.00546789 C-18.4216518 393.38952837 -18.39335962 388.77537493 -18.35591233 384.15956569 C-18.32529449 379.18195333 -18.34653945 374.20452975 -18.36134338 369.22688293 C-18.38211093 359.47571337 -18.35485191 349.72523707 -18.31150452 339.97416461 C-18.26283695 328.62269475 -18.26160378 317.27137003 -18.26240667 305.91981405 C-18.26222034 285.66799332 -18.2189053 265.41649321 -18.15136719 245.16479492 C-18.08584572 225.50621846 -18.05043018 205.84789632 -18.04882812 186.18920898 C-18.04872523 184.97847054 -18.04862233 183.7677321 -18.04851631 182.52030462 C-18.04841805 181.31167527 -18.04831979 180.10304591 -18.04821855 178.85779142 C-18.04623878 156.48833397 -18.01799683 134.11898039 -17.9763017 111.74956354 C-17.96207652 103.83395201 -17.95530776 95.91835354 -17.95069313 88.00273132 C-17.94448161 78.35834666 -17.92293233 68.71412912 -17.88230983 59.06982601 C-17.86183992 54.14759194 -17.84764845 49.22555862 -17.85063171 44.30327797 C-17.85312844 39.79908486 -17.83718647 35.29535118 -17.80636664 30.79126626 C-17.79841359 29.16014395 -17.79719837 27.52897229 -17.8033273 25.89784211 C-17.81061754 23.68295072 -17.79340802 21.46954817 -17.77001667 19.25479889 C-17.7666569 18.02396025 -17.76329713 16.79312161 -17.75983554 15.52498484 C-16.7462613 8.83381017 -12.41295342 5.01975462 -7.25268555 1.17700195 C-4.51261297 0.26364443 -2.8276449 0.03707187 0 0 Z " fill="#154B83" transform="translate(299.252685546875,67.822998046875)"/>
<path d="M0 0 C1.28702568 -0.01429802 1.28702568 -0.01429802 2.60005188 -0.02888489 C3.97981453 -0.02751778 3.97981453 -0.02751778 5.38745117 -0.02612305 C6.34181564 -0.03040817 7.29618011 -0.0346933 8.27946472 -0.03910828 C10.29762988 -0.04484717 12.31581572 -0.04535508 14.33398438 -0.04101562 C17.40881046 -0.03786395 20.48266645 -0.0612917 23.55737305 -0.08666992 C25.52156455 -0.08894391 27.48575862 -0.08964595 29.44995117 -0.08862305 C30.82060478 -0.10243767 30.82060478 -0.10243767 32.21894836 -0.11653137 C39.47268309 -0.0644468 45.18427328 1.26627965 50.49291992 6.5871582 C51.0678418 7.14016602 51.64276367 7.69317383 52.23510742 8.26293945 C54.92398956 12.17473126 54.74343269 17.09682751 54.77169418 21.71986866 C54.78046892 22.78173352 54.78924366 23.84359838 54.79828429 24.93764096 C54.80287477 26.09298217 54.80746524 27.24832338 54.81219482 28.43867493 C54.82081047 29.67476775 54.82942612 30.91086057 54.83830285 32.18441075 C54.86094867 35.60815525 54.87914189 39.03186839 54.89523506 42.4556464 C54.90980743 45.39397996 54.92796762 48.33228732 54.94606647 51.27060095 C55.11681177 79.12006025 55.20164196 106.97014386 55.2699852 134.82001972 C55.27903327 138.44283909 55.28824301 142.065658 55.29760742 145.68847656 C55.30108729 147.03908027 55.30108729 147.03908027 55.30463746 148.4169689 C55.34342669 163.00895992 55.42398739 177.60042542 55.52073619 192.19213472 C55.61928533 207.17970803 55.6761615 222.16700833 55.6935637 237.15489835 C55.70446506 245.56773241 55.73418824 253.97960541 55.81151581 262.39211464 C55.87733748 269.55489586 55.90594677 276.71659418 55.88594827 283.87967173 C55.87692377 287.53329233 55.88562888 291.18457101 55.9426384 294.83780861 C56.00403037 298.80266929 55.97973986 302.76442864 55.94744873 306.72969055 C55.99448743 308.45266412 55.99448743 308.45266412 56.04247642 310.21044523 C55.93636823 315.25092396 55.65450488 318.1302826 52.19441652 321.95017278 C49.42261833 324.2321248 46.59524062 326.27212391 43.61791992 328.2746582 C42.51649436 329.1841715 41.42894509 330.11129108 40.36791992 331.06762695 C26.77315704 342.90511225 12.01349195 353.12945958 -2.94458008 363.1496582 C-3.54933167 363.55636749 -4.15408325 363.96307678 -4.77716064 364.3821106 C-6.49736813 365.5366553 -8.22198024 366.68424747 -9.94848633 367.8293457 C-10.94823486 368.49434082 -11.9479834 369.15933594 -12.97802734 369.84448242 C-15.38208008 371.2746582 -15.38208008 371.2746582 -17.38208008 371.2746582 C-17.45071725 325.76971663 -17.50359414 280.26478053 -17.53527607 234.75979742 C-17.53902827 229.38991369 -17.54291123 224.02003006 -17.546875 218.65014648 C-17.54766193 217.58108026 -17.54844886 216.51201403 -17.54925964 215.41055186 C-17.56232055 198.09076504 -17.58597817 180.77100804 -17.61353847 163.45123892 C-17.6415736 145.68515684 -17.65825233 127.91909041 -17.66434556 110.15298712 C-17.66846593 99.18661774 -17.68148899 88.22033262 -17.70582948 77.25398917 C-17.72166331 69.73827712 -17.72648578 62.22260874 -17.72258421 54.70688121 C-17.720659 50.36795914 -17.72365095 46.02918452 -17.7396965 41.69028854 C-17.75427603 37.7188885 -17.75504519 33.74773531 -17.74477676 29.77632399 C-17.74350731 28.33880591 -17.74732945 26.90127253 -17.75672963 25.46378462 C-17.76876085 23.51054722 -17.76049048 21.55721632 -17.75122356 19.60396385 C-17.75236273 18.51872315 -17.75350189 17.43348244 -17.75467557 16.31535566 C-17.24385049 12.14658665 -15.75492134 8.78295314 -12.91723633 5.6652832 C-8.62220342 2.33862641 -5.50314226 0.03373221 0 0 Z " fill="#154B83" transform="translate(479.382080078125,103.725341796875)"/>
<path d="M0 0 C1.36766258 -0.02893593 1.36766258 -0.02893593 2.76295471 -0.05845642 C6.95472237 -0.11632731 11.14631751 -0.16552677 15.33837891 -0.19628906 C17.54296586 -0.21781539 19.7474686 -0.25185382 21.95166016 -0.29882812 C25.13865138 -0.36611677 28.32387137 -0.39334103 31.51147461 -0.41235352 C32.48681656 -0.44018417 33.46215851 -0.46801483 34.46705627 -0.49668884 C41.58875851 -0.47552976 46.27775046 1.42030828 51.60131836 6.20874023 C54.67319049 11.00854043 55.72691333 15.3926604 55.72436619 21.02694321 C55.72635724 21.99980798 55.72834828 22.97267274 55.73039967 23.97501826 C55.72748683 25.04115957 55.72457399 26.10730089 55.72157288 27.20574951 C55.7224273 28.34031121 55.72328173 29.47487292 55.72416204 30.64381528 C55.72581395 34.45941812 55.72030014 38.27497735 55.71484375 42.09057617 C55.71400546 44.8201958 55.71467571 47.54981457 55.71528625 50.2794342 C55.71581081 56.16327112 55.71267109 62.04709696 55.70704842 67.93093109 C55.69892424 76.43798563 55.69631725 84.9450348 55.69506042 93.4520928 C55.69287135 107.25395357 55.68621518 121.05580845 55.67675781 134.85766602 C55.66757996 148.26554332 55.66050095 161.67341902 55.65625 175.08129883 C55.65598728 175.90764571 55.65572455 176.73399259 55.65545387 177.58538029 C55.65414884 181.73088548 55.65288513 185.87639068 55.65164196 190.02189589 C55.64127386 224.41751492 55.62365946 258.81312694 55.60131836 293.20874023 C53.03411925 294.65382787 50.46680102 296.09870318 47.89941406 297.54345703 C46.81467175 298.15410633 46.81467175 298.15410633 45.70801544 298.77709198 C32.76152557 306.06175609 19.66660284 312.77226268 6.10131836 318.83374023 C4.91304443 319.36717041 3.72477051 319.90060059 2.50048828 320.45019531 C1.38907471 320.94028076 0.27766113 321.43036621 -0.86743164 321.93530273 C-1.86194336 322.37438965 -2.85645508 322.81347656 -3.88110352 323.26586914 C-6.39868164 324.20874023 -6.39868164 324.20874023 -9.39868164 324.20874023 C-9.39868164 324.86874023 -9.39868164 325.52874023 -9.39868164 326.20874023 C-11.70868164 326.86874023 -14.01868164 327.52874023 -16.39868164 328.20874023 C-16.46734668 288.47057749 -16.52020988 248.73242248 -16.55187763 208.99421227 C-16.55562975 204.30286342 -16.55951272 199.61151469 -16.56347656 194.92016602 C-16.56426349 193.98620208 -16.56505043 193.05223814 -16.5658612 192.08997226 C-16.57891549 176.96691997 -16.60256946 161.84390189 -16.63014003 146.7208699 C-16.65819358 131.20350312 -16.6748578 115.68615426 -16.68094712 100.16876316 C-16.68506367 90.59353295 -16.69806598 81.01839943 -16.72243104 71.44319898 C-16.7382876 64.87732411 -16.74308217 58.31149923 -16.73918577 51.7456066 C-16.7372641 47.95730072 -16.74021216 44.16916383 -16.75629807 40.38088799 C-16.77361929 36.27163715 -16.76764232 32.16274585 -16.75944519 28.0534668 C-16.76818371 26.85890271 -16.77692224 25.66433863 -16.78592557 24.43357563 C-16.74744093 17.30619096 -16.47737637 10.82226389 -11.64477539 5.15014648 C-11.04793945 4.69510742 -10.45110352 4.24006836 -9.83618164 3.77124023 C-9.23676758 3.2981543 -8.63735352 2.82506836 -8.01977539 2.33764648 C-5.20099262 0.37468691 -3.39489756 0.06709233 0 0 Z " fill="#144B83" transform="translate(388.398681640625,193.791259765625)"/>
<path d="M0 0 C0.85486496 -0.01283524 1.70972992 -0.02567047 2.59049988 -0.03889465 C3.97329887 -0.04997505 3.97329887 -0.04997505 5.3840332 -0.0612793 C6.33744095 -0.06935104 7.29084869 -0.07742279 8.27314758 -0.08573914 C10.29308254 -0.09957254 12.3130408 -0.11029802 14.33300781 -0.11816406 C17.4058128 -0.13533598 20.47753022 -0.17922415 23.55004883 -0.22338867 C25.51553573 -0.23351969 27.48103176 -0.24203451 29.4465332 -0.2487793 C30.81415047 -0.27504143 30.81415047 -0.27504143 32.20939636 -0.30183411 C39.18809263 -0.27838356 44.55307196 1.30400206 49.8059082 6.02856445 C50.26094727 6.61379883 50.71598633 7.1990332 51.18481445 7.80200195 C51.65790039 8.39239258 52.13098633 8.9827832 52.6184082 9.59106445 C54.81817229 12.68139047 54.87181788 14.70915017 54.87036228 18.46750832 C54.87235333 19.59662718 54.87434438 20.72574605 54.87639576 21.88908064 C54.87348292 23.14003126 54.87057008 24.39098188 54.86756897 25.67984009 C54.86800469 27.01387692 54.86887963 28.34791368 54.87015814 29.68194997 C54.87240284 33.36015047 54.86838214 37.03832206 54.86338007 40.71651888 C54.85907542 44.6783476 54.86052201 48.6401746 54.86128235 52.602005 C54.86180757 59.47025567 54.85866092 66.33849686 54.85304451 73.20674515 C54.84492932 83.13716972 54.84231427 93.0675897 54.84105652 102.99801724 C54.83886603 119.10813714 54.83220602 135.21825198 54.82275391 151.32836914 C54.81357971 166.98103815 54.80649891 182.6337058 54.80224609 198.28637695 C54.80198337 199.25065108 54.80172065 200.2149252 54.80144996 201.20841976 C54.80014496 206.04573349 54.79888124 210.88304724 54.79763806 215.72036099 C54.78726554 255.87257819 54.76964731 296.02478974 54.74731445 336.17700195 C50.55321248 334.11898518 46.71205628 331.65125612 42.78637695 329.12231445 C40.73069177 327.80646456 38.66247294 326.51002532 36.58325195 325.23168945 C35.58551758 324.61551758 34.5877832 323.9993457 33.55981445 323.36450195 C32.63813477 322.80118164 31.71645508 322.23786133 30.7668457 321.6574707 C30.10040039 321.16891602 29.43395508 320.68036133 28.74731445 320.17700195 C28.74731445 319.51700195 28.74731445 318.85700195 28.74731445 318.17700195 C27.72637695 317.83475586 27.72637695 317.83475586 26.68481445 317.4855957 C23.01818489 315.85219025 19.94553943 313.62803925 16.74731445 311.23950195 C16.08940918 310.75223633 15.43150391 310.2649707 14.75366211 309.76293945 C9.36409711 305.7282206 4.17283554 301.51499689 -0.84060574 297.02117348 C-3.07753935 295.07320232 -5.07577589 293.68726923 -7.66599369 292.14610863 C-12.39732129 289.24536314 -16.36504229 286.17781775 -17.99105525 280.68082857 C-19.21726194 272.91600947 -18.90182126 265.05619695 -18.76025391 257.22241211 C-18.75986073 254.56865772 -18.7646159 251.91537213 -18.77574158 249.26168823 C-18.79110052 242.8202575 -18.73800464 236.38114815 -18.66210204 229.94021852 C-18.57670153 222.43599899 -18.56364982 214.93216672 -18.55435366 207.42753045 C-18.53568859 194.03963702 -18.45761873 180.65277224 -18.34326172 167.26538086 C-18.23243212 154.27905168 -18.15459144 141.29315284 -18.11767578 128.30639648 C-18.11539118 127.50562465 -18.11310658 126.70485282 -18.11075275 125.87981518 C-18.10166697 122.66090499 -18.09271689 119.44199448 -18.08396965 116.22308335 C-18.04562231 102.34213427 -17.98412089 88.46126886 -17.91599026 74.58043712 C-17.90866605 73.08406956 -17.90144153 71.5877015 -17.89431533 70.09133297 C-17.85005766 60.81731228 -17.79411607 51.54350879 -17.71671486 42.26970291 C-17.69645943 39.68527608 -17.67950597 37.10082099 -17.66605377 34.51634979 C-17.64693489 30.99558206 -17.61552889 27.4751404 -17.58067322 23.95449829 C-17.57763134 22.92600978 -17.57458947 21.89752126 -17.57145542 20.83786643 C-17.55945624 19.89417807 -17.54745705 18.9504897 -17.53509426 17.97820473 C-17.52880676 17.16587021 -17.52251925 16.3535357 -17.51604122 15.51658499 C-16.95582754 10.53979288 -15.09025411 7.60452708 -11.31518555 4.42700195 C-10.62553711 3.8340332 -9.93588867 3.24106445 -9.2253418 2.63012695 C-6.20614972 0.40608843 -3.63839606 0.04770123 0 0 Z " fill="#154B83" transform="translate(209.252685546875,139.822998046875)"/>
<path d="M0 0 C4.1440574 3.60310819 6.52049238 7.9690931 9.1875 12.6875 C9.66654785 13.52748535 10.1455957 14.3674707 10.63916016 15.23291016 C12.10406757 17.81578599 13.55507661 20.40589777 15 23 C15.43103027 23.77263184 15.86206055 24.54526367 16.30615234 25.34130859 C21.28795504 34.33530137 25.62130822 43.26535339 29 53 C29.50799588 54.35588841 30.01717965 55.71133216 30.52734375 57.06640625 C39.96387931 82.8231059 42.4019907 114.48842186 31 140 C27.16656887 148.05112028 22.79647452 155.22932808 17 162 C16.01773438 163.19882812 16.01773438 163.19882812 15.015625 164.421875 C-10.27292698 194.14053827 -52.65505427 204.25752139 -89.85986328 207.71142578 C-111.42151216 209.35785274 -133.5586551 208.60128568 -155 206 C-155.97259766 205.8870459 -156.94519531 205.7740918 -157.94726562 205.65771484 C-173.2951201 203.81449181 -188.38605103 200.81422326 -203.5 197.625 C-204.37775085 197.44226532 -205.25550171 197.25953064 -206.15985107 197.07125854 C-217.28594354 194.74078795 -228.08222441 191.89598347 -238.87475586 188.32080078 C-243.4763639 186.80882906 -248.11574422 185.67593815 -252.84765625 184.640625 C-255 184 -255 184 -257 182 C-255.56695931 181.24151425 -254.128183 180.49386743 -252.6875 179.75 C-251.48673828 179.12351562 -251.48673828 179.12351562 -250.26171875 178.484375 C-247.4823498 177.21951249 -244.7559318 176.18472559 -241.87890625 175.17578125 C-235.79231099 173.00122684 -230.04745789 170.28247768 -224.25 167.4375 C-222.27667405 166.47656487 -220.30273044 165.51689693 -218.328125 164.55859375 C-216.93787109 163.88316528 -216.93787109 163.88316528 -215.51953125 163.1940918 C-213.50101766 162.23744936 -211.45015026 161.34919729 -209.390625 160.484375 C-206.62123304 159.27196838 -204.04902295 157.97445923 -201.40625 156.51953125 C-200.60316406 156.07802734 -199.80007813 155.63652344 -198.97265625 155.18164062 C-197.31922823 154.26611689 -195.67077284 153.34155661 -194.02734375 152.40820312 C-187.38993619 148.79118889 -182.48977338 148.31009637 -175.0625 149.875 C-160.64621917 152.65447538 -146.64211151 153.3395988 -132 153.25 C-131.0519046 153.24590118 -130.1038092 153.24180237 -129.12698364 153.23757935 C-106.97823122 153.12540011 -86.98484824 151.88725061 -65.625 145.55859375 C-61.06055586 144.22398332 -56.73372647 143.41533898 -52 143 C-52 142.34 -52 141.68 -52 141 C-50.824375 140.690625 -49.64875 140.38125 -48.4375 140.0625 C-37.19219516 136.30224034 -26.81019069 128.759434 -18 121 C-17.39027344 120.484375 -16.78054688 119.96875 -16.15234375 119.4375 C-8.01936831 112.02704402 -1.83331538 101.2332854 2 91 C2.63035156 89.37964844 2.63035156 89.37964844 3.2734375 87.7265625 C7.52788153 76.38957582 9.37662519 65.97202823 9.3125 53.875 C9.30831055 52.78477539 9.30412109 51.69455078 9.29980469 50.57128906 C9.10725822 36.6710726 6.40723334 24.18419165 2 11 C0.79552999 7.18472348 0 4.06467869 0 0 Z " fill="#EF7E25" transform="translate(639,416)"/>
<path d="M0 0 C3.49840535 1.44682409 5.1766906 3.18147948 7.4375 6.1875 C14.79967005 15.66887414 22.60533594 24.89443558 31.2421875 33.2421875 C33.1036266 35.1036266 34.7978237 37.0550006 36.5 39.0625 C39.35059818 42.36791272 42.38457631 45.20828475 45.7109375 48.02734375 C47.94753075 49.95478332 50.11820022 51.94307848 52.28100586 53.95263672 C58.32154735 59.56274269 64.56065918 64.84852734 71 70 C71.73992187 70.6084375 72.47984375 71.216875 73.2421875 71.84375 C91.27222733 86.56724274 110.60062008 99.53344646 130.38671875 111.75390625 C133.5406511 113.70374502 136.64638716 115.72088545 139.75 117.75 C147.41050676 122.64164889 155.59556777 126.56182318 164 130 C164 130.66 164 131.32 164 132 C165.175625 132.33 166.35125 132.66 167.5625 133 C172.87544656 134.75133579 177.63127412 137.34014316 182.50610352 140.04296875 C186.58206954 142.2947526 190.69738099 144.20116493 195 146 C198.344246 147.55061925 201.67865503 149.12082176 205.01171875 150.6953125 C207.38039474 151.72947953 209.47992876 152.49721206 212 153 C212 153.66 212 154.32 212 155 C198.71018428 159.71751484 185.3420404 163.86793303 171.6875 167.375 C171.03554657 167.54362549 170.38359314 167.71225098 169.71188354 167.88598633 C141.80021805 175.07424186 141.80021805 175.07424186 130.74609375 168.72070312 C129.75738281 168.13224609 128.76867187 167.54378906 127.75 166.9375 C126.77675781 166.37611328 125.80351562 165.81472656 124.80078125 165.23632812 C118.08554539 161.33471366 111.53197349 157.19894399 105 153 C103.25075121 151.89464363 101.50083997 150.79033428 99.75 149.6875 C87.91653815 142.1464034 76.33018211 134.27753758 65 126 C64.3591748 125.53335938 63.71834961 125.06671875 63.05810547 124.5859375 C54.47421055 118.31413931 46.22938458 111.78209285 38.22265625 104.7890625 C35.41745826 102.3420629 32.53799112 100.00573734 29.625 97.6875 C18.10934505 88.29755461 7.60426544 77.70055115 -2.9375 67.25 C-3.80101074 66.39954102 -4.66452148 65.54908203 -5.55419922 64.67285156 C-10.72251851 59.51149901 -15.46075312 54.16464799 -19.99438477 48.43652344 C-21.88262034 46.14259879 -23.86301 44.06123569 -26 42 C-20.11687567 26.49254121 -10.00334101 13.05991744 0 0 Z " fill="#EF7E25" transform="translate(132,378)"/>
<path d="M0 0 C-2.72294773 1.81529849 -3.87931019 2.33784708 -6.9296875 2.9375 C-32.11937888 8.30482006 -57.72928127 20.89029175 -72.640625 42.7109375 C-84.68038212 61.47287212 -89.29053904 84.33945923 -85.39453125 106.43359375 C-84.90471655 108.18648392 -84.3736157 109.92873128 -83.7890625 111.65234375 C-82.94186298 114.17297201 -82.4602587 116.63276623 -82 119.25 C-81.19437207 123.47788213 -79.78604496 127.07070109 -78 131 C-77.5702904 132.30828782 -77.15479647 133.6212906 -76.75 134.9375 C-73.04417811 146.20857486 -68.0670257 156.53579058 -61.40625 166.328125 C-60 169 -60 169 -59.9453125 170.98828125 C-61.57351419 174.09392522 -63.95262923 176.4458223 -66.375 178.9375 C-67.47091889 180.09430328 -68.56461452 181.25321624 -69.65625 182.4140625 C-70.213125 183.00606445 -70.77 183.59806641 -71.34375 184.20800781 C-78.00916008 191.41969855 -84.23518184 199.0538993 -90 207 C-93.58928812 205.56196846 -94.98612616 203.93711923 -96.9453125 200.640625 C-97.46480469 199.77179688 -97.98429687 198.90296875 -98.51953125 198.0078125 C-99.04933594 197.09773437 -99.57914063 196.18765625 -100.125 195.25 C-100.66253906 194.35539063 -101.20007813 193.46078125 -101.75390625 192.5390625 C-104.36335186 188.12708214 -106.66139641 183.99084303 -108 179 C-108.66 179 -109.32 179 -110 179 C-110.20753906 178.47535156 -110.41507813 177.95070313 -110.62890625 177.41015625 C-111.09103516 176.24806641 -111.09103516 176.24806641 -111.5625 175.0625 C-111.92730469 174.14082031 -112.29210937 173.21914063 -112.66796875 172.26953125 C-113.61908765 169.93496669 -114.59582007 167.62915278 -115.61328125 165.32421875 C-119.12965595 157.25712515 -121.99089021 149.18119436 -124.3125 140.6875 C-124.55468262 139.80545898 -124.79686523 138.92341797 -125.04638672 138.01464844 C-127.94934216 126.98874429 -129.33126021 116.40351605 -129.25 105 C-129.25773437 103.91460937 -129.26546875 102.82921875 -129.2734375 101.7109375 C-129.21164644 75.82048331 -118.47713528 53.92111001 -100.27978516 35.78540039 C-91.82053964 27.70516201 -81.91865927 21.2252283 -71 17 C-69.49675536 16.34068218 -67.99680128 15.67381776 -66.5 15 C-65.7575 14.67257813 -65.015 14.34515625 -64.25 14.0078125 C-62.7421279 13.33241146 -61.24201516 12.63943082 -59.75 11.9296875 C-55.35788983 9.87088586 -51.22003413 8.42223366 -46.4609375 7.48828125 C-43.74215961 6.94884119 -41.06688407 6.28560672 -38.375 5.625 C-32.01394667 4.15706462 -25.61364402 2.95969853 -19.1875 1.8125 C-18.20894043 1.63348145 -17.23038086 1.45446289 -16.22216797 1.27001953 C-10.72356916 0.31003592 -5.58095296 -0.19153566 0 0 Z " fill="#EF7E25" transform="translate(178,185)"/>
<path d="M0 0 C0.33 0.66 0.66 1.32 1 2 C0.53348211 3.02627345 0.06696423 4.0525469 -0.41369057 5.10991955 C-3.05402943 11.83467054 -2.41300146 19.1311384 -2.38095093 26.24128723 C-2.38440956 27.90835126 -2.38917551 29.575413 -2.39513266 31.24246997 C-2.4076434 35.81350005 -2.40147199 40.38434197 -2.39217401 44.95537269 C-2.38538445 49.88854546 -2.39586411 54.82168595 -2.40411377 59.75485229 C-2.41745279 69.41359351 -2.41457303 79.07226479 -2.40587585 88.73100875 C-2.39910235 96.57786205 -2.39818113 104.42469574 -2.4014473 112.27155113 C-2.401907 113.38807162 -2.40236669 114.50459212 -2.40284032 115.65494656 C-2.40379949 117.9230281 -2.40477212 120.19110964 -2.4057581 122.45919117 C-2.41431198 143.72446841 -2.40447685 164.98970685 -2.388357 186.25497773 C-2.37494462 204.51432422 -2.37728949 222.77361352 -2.39111328 241.03295898 C-2.40715327 262.22958766 -2.4134977 283.42618237 -2.40427649 304.62281626 C-2.40332082 306.8810534 -2.40237771 309.13929055 -2.4014473 311.39752769 C-2.40098447 312.50868209 -2.40052164 313.61983649 -2.40004479 314.76466224 C-2.39745084 322.60757477 -2.40183442 330.45046581 -2.40888596 338.29337502 C-2.41728319 347.84295329 -2.41505796 357.39245756 -2.39904372 366.94202731 C-2.39113843 371.81731252 -2.38810782 376.69247415 -2.39799118 381.56775856 C-2.40689147 386.02535199 -2.40208289 390.48270656 -2.38605852 394.94027814 C-2.38269094 396.55784509 -2.38444879 398.17543198 -2.39168589 399.79298625 C-2.40073341 401.98208367 -2.39152968 404.17034959 -2.37752342 406.35940266 C-2.37703637 407.57814526 -2.37654931 408.79688786 -2.37604749 410.05256206 C-2.25670191 413.01705007 -2.25670191 413.01705007 -0.47640479 414.91503733 C0.25441558 415.45209385 0.25441558 415.45209385 1 416 C-2 416 -2 416 -5 414 C-5.37719816 411.1488111 -5.37719816 411.1488111 -5.38031673 407.41439438 C-5.38497665 406.72671618 -5.38963657 406.03903798 -5.3944377 405.33052105 C-5.40648408 403.00301544 -5.39695575 400.67608328 -5.38768005 398.34857178 C-5.3918488 396.67232443 -5.39732377 394.9960799 -5.40399987 393.31984067 C-5.41853408 388.69544686 -5.414185 384.07123005 -5.40683305 379.44682622 C-5.40212316 374.46645101 -5.41459196 369.48611531 -5.42485046 364.50575256 C-5.44208794 354.74091193 -5.44286809 344.9761355 -5.43763756 335.21128359 C-5.4336031 327.2761157 -5.43503079 319.34096684 -5.44038582 311.40579987 C-5.44113424 310.27823116 -5.44188266 309.15066245 -5.44265376 307.988925 C-5.44418518 305.69854344 -5.44572353 303.4081619 -5.44726873 301.11778036 C-5.46101217 279.61494867 -5.4555436 258.11215332 -5.44408352 236.60932246 C-5.43415355 216.92612703 -5.44708448 197.24302563 -5.47101771 177.5598447 C-5.49538695 157.36642101 -5.50502167 137.17304116 -5.49836498 116.97960305 C-5.49486736 105.63570437 -5.49714034 94.29187801 -5.51461601 82.94799042 C-5.529311 73.28891066 -5.53000911 63.62995411 -5.5125451 53.97087684 C-5.50400959 49.04054371 -5.50194749 44.1104309 -5.51719666 39.18010902 C-5.53097846 34.66839897 -5.52636487 30.15709934 -5.50695742 25.64541343 C-5.50317695 24.01146194 -5.50617794 22.37747809 -5.51656907 20.74355528 C-5.5296779 18.52486309 -5.51821226 16.30760025 -5.50057125 14.08897018 C-5.50046391 12.85596326 -5.50035658 11.62295633 -5.50024599 10.35258555 C-4.8614443 6.07141714 -3.06701433 3.06701433 0 0 Z " fill="#254986" transform="translate(287,73)"/>
<path d="M0 0 C1.40144005 -0.00945648 1.40144005 -0.00945648 2.83119202 -0.019104 C4.34065651 -0.01303131 4.34065651 -0.01303131 5.88061523 -0.00683594 C6.91484116 -0.00874939 7.94906708 -0.01066284 9.01463318 -0.01263428 C11.20100142 -0.01399549 13.38737775 -0.0103035 15.57373047 -0.00195312 C18.92946415 0.00875796 22.28466376 -0.00185632 25.64038086 -0.01464844 C27.76212684 -0.01332704 29.88387248 -0.01076507 32.00561523 -0.00683594 C33.01394913 -0.0108844 34.02228302 -0.01493286 35.06117249 -0.019104 C35.99231369 -0.01279968 36.9234549 -0.00649536 37.8828125 0 C38.70427261 0.00159119 39.52573273 0.00318237 40.37208557 0.00482178 C42.37670898 0.25878906 42.37670898 0.25878906 44.37670898 2.25878906 C41.55965166 3.19780817 39.68068261 3.41903569 36.75341797 3.49584961 C35.8191246 3.52225021 34.88483124 3.54865082 33.92222595 3.57585144 C32.41276146 3.61033134 32.41276146 3.61033134 30.87280273 3.64550781 C29.83857681 3.67103226 28.80435089 3.6965567 27.73878479 3.72285461 C25.55247726 3.77485775 23.36610718 3.8242853 21.1796875 3.87133789 C17.8237788 3.94607594 14.46853197 4.03666889 11.11303711 4.12792969 C8.99131437 4.17643027 6.86956984 4.2239884 4.74780273 4.27050781 C3.73946884 4.29956711 2.73113495 4.3286264 1.69224548 4.35856628 C0.29553368 4.38398247 0.29553368 4.38398247 -1.12939453 4.40991211 C-2.3615847 4.43869698 -2.3615847 4.43869698 -3.6186676 4.46806335 C-5.62329102 4.25878906 -5.62329102 4.25878906 -7.62329102 2.25878906 C-4.44069878 0.13706091 -3.64652277 0.00705656 0 0 Z " fill="#3F5591" transform="translate(388.623291015625,193.7412109375)"/>
<path d="M0 0 C0 4.04978838 -2.02320465 6.22322594 -4.3125 9.375 C-7.6259077 13.9899745 -7.6259077 13.9899745 -10.59375 18.83203125 C-12.53804056 21.8294792 -14.6205599 22.17391464 -18 23 C-16.43269582 19.45076089 -14.28421705 16.72797234 -11.8125 13.75 C-10.61753906 12.30947266 -10.61753906 12.30947266 -9.3984375 10.83984375 C-6.31173039 7.18506188 -3.18262793 3.57150208 0 0 Z " fill="#F1913F" transform="translate(115,378)"/>
<path d="M0 0 C-2.88295727 1.92197152 -4.5840999 2.52845937 -7.88671875 3.2890625 C-9.2934082 3.61777344 -9.2934082 3.61777344 -10.72851562 3.953125 C-12.19321289 4.28570312 -12.19321289 4.28570312 -13.6875 4.625 C-14.67556641 4.85445312 -15.66363281 5.08390625 -16.68164062 5.3203125 C-19.11988169 5.88570173 -21.55929397 6.44536611 -24 7 C-24 6.34 -24 5.68 -24 5 C-24.99 4.34 -25.98 3.68 -27 3 C-24.00114586 2.49212954 -21.00121874 1.99353375 -18 1.5 C-16.74123047 1.28537109 -16.74123047 1.28537109 -15.45703125 1.06640625 C-10.22817799 0.21519758 -5.29724973 -0.14714583 0 0 Z " fill="#F29A53" transform="translate(178,185)"/>
<path d="M0 0 C7.52719602 -0.25515919 14.58851545 0.71702277 22 2 C20.02 2.99 20.02 2.99 18 4 C18.66 4.66 19.32 5.32 20 6 C13.04976736 5.35346673 6.61822697 3.13972752 0 1 C0 0.67 0 0.34 0 0 Z " fill="#F19142" transform="translate(552,186)"/>
<path d="M0 0 C-1.32 0.33 -2.64 0.66 -4 1 C-4 1.66 -4 2.32 -4 3 C-4.639375 3.28875 -5.27875 3.5775 -5.9375 3.875 C-8.15206079 4.82823451 -8.15206079 4.82823451 -9 7 C-11.97 6.505 -11.97 6.505 -15 6 C-12.61827612 3.26455475 -10.29334709 2.07454642 -6.9375 0.75 C-6.05964844 0.39421875 -5.18179687 0.0384375 -4.27734375 -0.328125 C-2 -1 -2 -1 0 0 Z " fill="#F19247" transform="translate(397,593)"/>
<path d="M0 0 C3.08089673 2.77280706 4.68775452 5.06326356 6 9 C5.67 9 5.34 9 5 9 C4.67 10.98 4.34 12.96 4 15 C1.32820751 10.22894198 0 5.46088946 0 0 Z " fill="#F2A15F" transform="translate(639,416)"/>
<path d="M0 0 C0.90878906 0.29970703 0.90878906 0.29970703 1.8359375 0.60546875 C0.38228481 1.77796228 -1.07713669 2.94330691 -2.5390625 4.10546875 C-3.35117187 4.75515625 -4.16328125 5.40484375 -5 6.07421875 C-7.1640625 7.60546875 -7.1640625 7.60546875 -9.1640625 7.60546875 C-7.61676385 3.66689037 -4.6743802 -0.85218845 0 0 Z " fill="#335B90" transform="translate(509.1640625,441.39453125)"/>
<path d="M0 0 C0.66 0.66 1.32 1.32 2 2 C-0.97 4.31 -3.94 6.62 -7 9 C-7.66 8.67 -8.32 8.34 -9 8 C-6.03 5.36 -3.06 2.72 0 0 Z " fill="#F08936" transform="translate(549,425)"/>
<path d="M0 0 C-0.625 1.875 -0.625 1.875 -2 4 C-5.125 5.25 -5.125 5.25 -8 6 C-6.98565881 3.46414701 -6.34981128 2.21863205 -4 0.75 C-2 0 -2 0 0 0 Z " fill="#EF852F" transform="translate(102,399)"/>
<path d="M0 0 C0.66 0.33 1.32 0.66 2 1 C2 1.66 2 2.32 2 3 C-1.465 4.485 -1.465 4.485 -5 6 C-3.63016497 2.83884224 -3.0109362 2.0072908 0 0 Z " fill="#28518A" transform="translate(441,485)"/>
</svg>
