<?xml version="1.0"?>
<svg width="906" height="485" xmlns="http://www.w3.org/2000/svg" xmlns:svg="http://www.w3.org/2000/svg" enable-background="new 0 0 906 485" version="1.1" xml:space="preserve">
 <g class="layer">
  <title>Layer 1</title>
  <path d="m657.07,273.08c7.87,-4.12 15.8,-8.14 23.59,-12.4c11.21,-6.14 22.32,-12.47 33.49,-18.69c4.35,-2.43 8.73,-4.81 13.27,-7.3c3.33,15.81 6.57,31.15 9.85,46.71c-13.22,3.93 -26.2,7.68 -39.11,11.66c-12.92,3.98 -25.77,8.18 -38.57,12.85c26.29,-2.92 52.58,-5.83 79.14,-8.77c0,7.73 0,15.49 0,23.55c-201.69,0 -403.41,0 -605.43,0c0,-7.68 0,-15.41 0,-23.85c4.24,0.39 8.4,1 12.58,1.12c15.75,0.43 31.52,0.59 47.28,1.07c17.85,0.54 35.7,1.28 53.54,1.98c16.52,0.64 33.04,1.36 49.56,1.98c10.59,0.4 21.19,0.57 31.77,1.04c11.86,0.54 23.7,1.32 35.55,1.95c1.3,0.07 2.61,-0.1 3.92,-0.51c-6.92,-0.83 -13.84,-1.71 -20.77,-2.46c-12.69,-1.37 -25.38,-2.71 -38.08,-3.96c-8.01,-0.79 -16.05,-1.23 -24.04,-2.09c-10.88,-1.17 -21.72,-2.68 -32.59,-3.88c-7.5,-0.84 -15.04,-1.31 -22.54,-2.1c-11.87,-1.25 -23.72,-2.69 -35.59,-3.92c-7.84,-0.81 -15.7,-1.36 -23.55,-2.07c-10.94,-0.98 -21.89,-1.92 -32.82,-3.06c-3.08,-0.32 -2.61,-2.55 -2.1,-4.86c3.1,-13.89 6.09,-27.81 9.25,-42.34c75.14,13.52 150.38,27.07 225.63,40.61c0.04,-0.26 0.09,-0.53 0.13,-0.79c-73.47,-18.29 -146.94,-36.57 -220.91,-54.98c6.51,-14.65 12.86,-28.92 19.38,-43.57c69.97,23.18 139.64,46.27 209.3,69.35c0.13,-0.34 0.25,-0.68 0.37,-1.02c-67.19,-27.35 -134.37,-54.7 -201.84,-82.16c9.3,-12.57 18.15,-24.61 27.13,-36.54c0.55,-0.74 2.45,-1.28 3.23,-0.91c13.03,6.34 26.01,12.77 38.94,19.3c18.76,9.48 37.41,19.18 56.22,28.59c31.03,15.52 62.14,30.87 93.22,46.28c0.25,0.12 0.63,-0.05 2.13,-0.2c-61.12,-35.87 -121.42,-71.25 -182.14,-106.88c12.11,-10.9 23.63,-21.26 35.46,-31.91c54.14,37.77 108.41,75.62 162.69,113.48c0.33,-0.44 0.66,-0.88 0.99,-1.32c-50.22,-40.45 -100.43,-80.89 -150.8,-121.46c13.97,-8.08 27.53,-15.94 41.04,-23.75c4.99,4.48 9.89,8.63 14.52,13.07c17.68,16.89 35.23,33.91 52.9,50.82c12.8,12.25 25.66,24.44 38.58,36.57c9.73,9.15 19.58,18.16 30.19,26.73c-0.37,-0.87 -0.54,-1.93 -1.15,-2.59c-13.05,-14.13 -26.19,-28.18 -39.23,-42.32c-14.89,-16.13 -29.71,-32.33 -44.52,-48.52c-10.02,-10.95 -19.99,-21.94 -29.94,-32.95c-2.07,-2.3 -3.94,-4.8 -6.12,-7.48c8.24,-2.76 16.29,-5.51 24.37,-8.15c5.82,-1.91 11.63,-3.88 17.56,-5.37c1.47,-0.36 4.04,0.53 4.99,1.73c14.44,18.29 28.77,36.67 42.98,55.13c11.51,14.95 22.79,30.08 34.26,45.06c8.22,10.75 16.57,21.38 24.91,32.04c0.58,0.74 1.48,1.23 2.24,1.84c0.34,-0.26 0.69,-0.51 1.04,-0.76c-30.51,-46.33 -61.01,-92.66 -91.94,-139.63c11.22,-1.07 21.76,-2.07 32.29,-3.07c3.76,-0.36 7.81,0.05 11.19,-1.26c3.68,-1.42 4.62,0.31 5.93,2.76c14.01,26.1 28.05,52.2 42.09,78.29c8.81,16.39 17.64,32.78 26.48,49.16c2.76,5.12 5.58,10.2 8.84,15.8c1.03,1.63 1.57,2.77 2.12,3.91c0.3,-0.16 0.6,-0.31 0.9,-0.47c-0.75,-1.42 -1.49,-2.84 -2.24,-4.26c-5.2,-11.99 -10.36,-23.99 -15.6,-35.96c-8.55,-19.53 -17.08,-39.07 -25.74,-58.56c-7.53,-16.96 -15.22,-33.84 -23.07,-51.25c8.22,0.87 15.93,1.67 23.63,2.51c6.98,0.75 13.98,1.4 20.92,2.46c1.4,0.21 3.25,1.81 3.72,3.18c5.9,17.05 11.53,34.2 17.32,51.29c10.71,31.59 21.48,63.16 32.99,94.57c-11.72,-48.21 -23.45,-96.41 -35.35,-145.32c4.42,1.16 8.44,2.01 12.33,3.26c9.98,3.21 19.96,6.46 29.8,10.07c1.68,0.62 3.56,3.01 3.83,4.81c2.88,19.17 5.54,38.38 8.1,57.59c2.12,15.85 3.93,31.75 6.08,47.59c1.69,12.41 3.69,24.78 6.21,37.13c-0.42,-4.07 -1.06,-8.12 -1.21,-12.2c-0.45,-12.25 -0.62,-24.52 -1.06,-36.77c-0.58,-16.02 -1.22,-32.04 -2.01,-48.05c-0.69,-13.85 -1.65,-27.68 -2.55,-42.74c6.53,3.71 12.07,6.84 17.6,9.99c6.18,3.53 12.21,7.34 18.56,10.53c4.61,2.32 6.22,5.47 5.46,10.48c-0.91,5.98 -1.59,12.01 -1.99,18.04c-0.82,12.34 -1.35,24.7 -2.06,37.05c-0.62,10.85 -1.3,21.7 -2,32.55c-0.63,9.69 -1.33,19.37 -1.97,29.06c-0.05,0.73 0.13,1.48 0.33,3.43c6.97,-39.93 13.72,-78.64 20.59,-117.98c8.85,8.06 16.99,15.5 25.17,22.9c1.82,1.65 3.66,3.3 5.69,4.66c4.33,2.89 4.14,6.4 2.69,10.94c-8.5,26.57 -16.74,53.23 -25.03,79.87c-2,6.43 -3.87,12.9 -4.85,19.68c14.03,-31.17 28.06,-62.34 42.39,-94.17c9.57,13.12 18.67,25.6 28.1,38.53c-17.04,26.38 -34.25,53.03 -51.46,79.68c0.38,0.27 0.75,0.54 1.13,0.81c19.25,-22.03 38.5,-44.07 58.3,-66.72c5.29,11.94 10.11,22.81 14.93,33.69c0.12,0.29 0.08,0.66 0.2,0.96c1.21,2.95 3.9,6.27 3.27,8.75c-0.66,2.63 -4.36,4.6 -6.92,6.63c-17.49,13.9 -35.03,27.74 -52.55,41.61c-1.79,1.42 -3.53,2.9 -5.73,4.8c-0.59,0.79 -0.74,1.13 -0.89,1.46c0.57,-0.23 1.13,-0.46 1.69,-0.69m-184.41,-108.06c0.42,-0.38 0.84,-0.76 1.26,-1.13c-0.44,-0.39 -0.88,-0.78 -1.32,-1.17c-0.17,0.55 -0.35,1.09 0.06,2.3m-54.75,29.65c-0.86,-0.32 -1.71,-0.65 -2.57,-0.97c-0.09,0.24 -0.18,0.49 -0.27,0.73c0.79,0.33 1.58,0.66 2.84,0.24m58.17,-27.08c-0.3,-0.48 -0.6,-0.96 -0.91,-1.44c-0.26,0.25 -0.52,0.5 -0.78,0.75c0.69,0.5 1.37,1 1.69,0.69m166.55,77.18c0.15,-0.51 0.3,-1.02 0.44,-1.53c-0.33,0.33 -0.66,0.66 -0.44,1.53m-224.6,-48.48c0.49,0.11 0.98,0.22 1.47,0.33c-0.36,-0.33 -0.72,-0.66 -1.47,-0.33m32.22,-12.37c-0.15,-0.4 -0.3,-0.79 -0.45,-1.19c-0.1,0.39 -0.21,0.78 0.45,1.19m27.03,-14.89c-0.06,0.48 -0.13,0.95 -0.19,1.43c0.27,-0.33 0.54,-0.65 0.19,-1.43z" fill="#E50D0C" id="svg_2"/>
  <path d="m507.89,163.12c0.94,1.23 1.68,2.65 2.43,4.07c-0.3,0.16 -0.6,0.31 -0.9,0.47c-0.55,-1.14 -1.09,-2.28 -1.85,-3.68c-0.1,-0.4 0.02,-0.53 0.32,-0.86z" fill="#FFFFFF" id="svg_18"/>
  <path d="m472.37,164.69c-0.12,-0.88 0.06,-1.42 0.23,-1.97c0.44,0.39 0.88,0.78 1.32,1.17c-0.42,0.37 -0.84,0.75 -1.55,0.8z" fill="#FFFFFF" id="svg_19"/>
  <path d="m417.67,195.05c-1.02,0.04 -1.81,-0.29 -2.6,-0.62c0.09,-0.24 0.18,-0.49 0.27,-0.73c0.86,0.32 1.71,0.65 2.33,1.35z" fill="#FFFFFF" id="svg_20"/>
  <path d="m476.26,168c-0.5,-0.1 -1.18,-0.6 -1.87,-1.1c0.26,-0.25 0.52,-0.5 0.78,-0.75c0.31,0.48 0.61,0.96 1.09,1.85z" fill="#FFFFFF" id="svg_21"/>
  <path d="m656.88,272.9c-0.37,0.41 -0.93,0.64 -1.5,0.87c0.15,-0.33 0.3,-0.67 0.66,-1.2c0.36,-0.08 0.5,0.03 0.84,0.33z" fill="#FFFFFF" id="svg_22"/>
  <path d="m642.35,244.5c0.06,-0.6 0.39,-0.93 0.72,-1.26c-0.14,0.51 -0.29,1.02 -0.72,1.26z" fill="#FFFFFF" id="svg_23"/>
  <path d="m418.23,195.96c0.55,0 0.91,0.33 1.27,0.66c-0.49,-0.11 -0.98,-0.22 -1.27,-0.66z" fill="#FFFFFF" id="svg_24"/>
  <path d="m449.87,183.91c-0.28,-0.4 -0.17,-0.79 -0.07,-1.18c0.15,0.4 0.3,0.79 0.07,1.18z" fill="#FFFFFF" id="svg_25"/>
  <path d="m477.59,169.26c0.04,0.55 -0.23,0.87 -0.5,1.2c0.06,-0.48 0.13,-0.95 0.5,-1.2z" fill="#FFFFFF" id="svg_26"/>
 </g>
</svg>