<?xml version="1.0"?>
<svg width="906" height="485" xmlns="http://www.w3.org/2000/svg" xmlns:svg="http://www.w3.org/2000/svg" enable-background="new 0 0 906 485" version="1.1" xml:space="preserve">
 <g class="layer">
  <title>Layer 1</title>
  <path d="m657.07,273.08c7.87,-4.12 15.8,-8.14 23.59,-12.4c11.21,-6.14 22.32,-12.47 33.49,-18.69c4.35,-2.43 8.73,-4.81 13.27,-7.3c3.33,15.81 6.57,31.15 9.85,46.71c-13.22,3.93 -26.2,7.68 -39.11,11.66c-12.92,3.98 -25.77,8.18 -38.57,12.85c26.29,-2.92 52.58,-5.83 79.14,-8.77c0,7.73 0,15.49 0,23.55c-201.69,0 -403.41,0 -605.43,0c0,-7.68 0,-15.41 0,-23.85c4.24,0.39 8.4,1 12.58,1.12c15.75,0.43 31.52,0.59 47.28,1.07c17.85,0.54 35.7,1.28 53.54,1.98c16.52,0.64 33.04,1.36 49.56,1.98c10.59,0.4 21.19,0.57 31.77,1.04c11.86,0.54 23.7,1.32 35.55,1.95c1.3,0.07 2.61,-0.1 3.92,-0.51c-6.92,-0.83 -13.84,-1.71 -20.77,-2.46c-12.69,-1.37 -25.38,-2.71 -38.08,-3.96c-8.01,-0.79 -16.05,-1.23 -24.04,-2.09c-10.88,-1.17 -21.72,-2.68 -32.59,-3.88c-7.5,-0.84 -15.04,-1.31 -22.54,-2.1c-11.87,-1.25 -23.72,-2.69 -35.59,-3.92c-7.84,-0.81 -15.7,-1.36 -23.55,-2.07c-10.94,-0.98 -21.89,-1.92 -32.82,-3.06c-3.08,-0.32 -2.61,-2.55 -2.1,-4.86c3.1,-13.89 6.09,-27.81 9.25,-42.34c75.14,13.52 150.38,27.07 225.63,40.61c0.04,-0.26 0.09,-0.53 0.13,-0.79c-73.47,-18.29 -146.94,-36.57 -220.91,-54.98c6.51,-14.65 12.86,-28.92 19.38,-43.57c69.97,23.18 139.64,46.27 209.3,69.35c0.13,-0.34 0.25,-0.68 0.37,-1.02c-67.19,-27.35 -134.37,-54.7 -201.84,-82.16c9.3,-12.57 18.15,-24.61 27.13,-36.54c0.55,-0.74 2.45,-1.28 3.23,-0.91c13.03,6.34 26.01,12.77 38.94,19.3c18.76,9.48 37.41,19.18 56.22,28.59c31.03,15.52 62.14,30.87 93.22,46.28c0.25,0.12 0.63,-0.05 2.13,-0.2c-61.12,-35.87 -121.42,-71.25 -182.14,-106.88c12.11,-10.9 23.63,-21.26 35.46,-31.91c54.14,37.77 108.41,75.62 162.69,113.48c0.33,-0.44 0.66,-0.88 0.99,-1.32c-50.22,-40.45 -100.43,-80.89 -150.8,-121.46c13.97,-8.08 27.53,-15.94 41.04,-23.75c4.99,4.48 9.89,8.63 14.52,13.07c17.68,16.89 35.23,33.91 52.9,50.82c12.8,12.25 25.66,24.44 38.58,36.57c9.73,9.15 19.58,18.16 30.19,26.73c-0.37,-0.87 -0.54,-1.93 -1.15,-2.59c-13.05,-14.13 -26.19,-28.18 -39.23,-42.32c-14.89,-16.13 -29.71,-32.33 -44.52,-48.52c-10.02,-10.95 -19.99,-21.94 -29.94,-32.95c-2.07,-2.3 -3.94,-4.8 -6.12,-7.48c8.24,-2.76 16.29,-5.51 24.37,-8.15c5.82,-1.91 11.63,-3.88 17.56,-5.37c1.47,-0.36 4.04,0.53 4.99,1.73c14.44,18.29 28.77,36.67 42.98,55.13c11.51,14.95 22.79,30.08 34.26,45.06c8.22,10.75 16.57,21.38 24.91,32.04c0.58,0.74 1.48,1.23 2.24,1.84c0.34,-0.26 0.69,-0.51 1.04,-0.76c-30.51,-46.33 -61.01,-92.66 -91.94,-139.63c11.22,-1.07 21.76,-2.07 32.29,-3.07c3.76,-0.36 7.81,0.05 11.19,-1.26c3.68,-1.42 4.62,0.31 5.93,2.76c14.01,26.1 28.05,52.2 42.09,78.29c8.81,16.39 17.64,32.78 26.48,49.16c2.76,5.12 5.58,10.2 8.84,15.8c1.03,1.63 1.57,2.77 2.12,3.91c0.3,-0.16 0.6,-0.31 0.9,-0.47c-0.75,-1.42 -1.49,-2.84 -2.24,-4.26c-5.2,-11.99 -10.36,-23.99 -15.6,-35.96c-8.55,-19.53 -17.08,-39.07 -25.74,-58.56c-7.53,-16.96 -15.22,-33.84 -23.07,-51.25c8.22,0.87 15.93,1.67 23.63,2.51c6.98,0.75 13.98,1.4 20.92,2.46c1.4,0.21 3.25,1.81 3.72,3.18c5.9,17.05 11.53,34.2 17.32,51.29c10.71,31.59 21.48,63.16 32.99,94.57c-11.72,-48.21 -23.45,-96.41 -35.35,-145.32c4.42,1.16 8.44,2.01 12.33,3.26c9.98,3.21 19.96,6.46 29.8,10.07c1.68,0.62 3.56,3.01 3.83,4.81c2.88,19.17 5.54,38.38 8.1,57.59c2.12,15.85 3.93,31.75 6.08,47.59c1.69,12.41 3.69,24.78 6.21,37.13c-0.42,-4.07 -1.06,-8.12 -1.21,-12.2c-0.45,-12.25 -0.62,-24.52 -1.06,-36.77c-0.58,-16.02 -1.22,-32.04 -2.01,-48.05c-0.69,-13.85 -1.65,-27.68 -2.55,-42.74c6.53,3.71 12.07,6.84 17.6,9.99c6.18,3.53 12.21,7.34 18.56,10.53c4.61,2.32 6.22,5.47 5.46,10.48c-0.91,5.98 -1.59,12.01 -1.99,18.04c-0.82,12.34 -1.35,24.7 -2.06,37.05c-0.62,10.85 -1.3,21.7 -2,32.55c-0.63,9.69 -1.33,19.37 -1.97,29.06c-0.05,0.73 0.13,1.48 0.33,3.43c6.97,-39.93 13.72,-78.64 20.59,-117.98c8.85,8.06 16.99,15.5 25.17,22.9c1.82,1.65 3.66,3.3 5.69,4.66c4.33,2.89 4.14,6.4 2.69,10.94c-8.5,26.57 -16.74,53.23 -25.03,79.87c-2,6.43 -3.87,12.9 -4.85,19.68c14.03,-31.17 28.06,-62.34 42.39,-94.17c9.57,13.12 18.67,25.6 28.1,38.53c-17.04,26.38 -34.25,53.03 -51.46,79.68c0.38,0.27 0.75,0.54 1.13,0.81c19.25,-22.03 38.5,-44.07 58.3,-66.72c5.29,11.94 10.11,22.81 14.93,33.69c0.12,0.29 0.08,0.66 0.2,0.96c1.21,2.95 3.9,6.27 3.27,8.75c-0.66,2.63 -4.36,4.6 -6.92,6.63c-17.49,13.9 -35.03,27.74 -52.55,41.61c-1.79,1.42 -3.53,2.9 -5.73,4.8c-0.59,0.79 -0.74,1.13 -0.89,1.46c0.57,-0.23 1.13,-0.46 1.69,-0.69m-184.41,-108.06c0.42,-0.38 0.84,-0.76 1.26,-1.13c-0.44,-0.39 -0.88,-0.78 -1.32,-1.17c-0.17,0.55 -0.35,1.09 0.06,2.3m-54.75,29.65c-0.86,-0.32 -1.71,-0.65 -2.57,-0.97c-0.09,0.24 -0.18,0.49 -0.27,0.73c0.79,0.33 1.58,0.66 2.84,0.24m58.17,-27.08c-0.3,-0.48 -0.6,-0.96 -0.91,-1.44c-0.26,0.25 -0.52,0.5 -0.78,0.75c0.69,0.5 1.37,1 1.69,0.69m166.55,77.18c0.15,-0.51 0.3,-1.02 0.44,-1.53c-0.33,0.33 -0.66,0.66 -0.44,1.53m-224.6,-48.48c0.49,0.11 0.98,0.22 1.47,0.33c-0.36,-0.33 -0.72,-0.66 -1.47,-0.33m32.22,-12.37c-0.15,-0.4 -0.3,-0.79 -0.45,-1.19c-0.1,0.39 -0.21,0.78 0.45,1.19m27.03,-14.89c-0.06,0.48 -0.13,0.95 -0.19,1.43c0.27,-0.33 0.54,-0.65 0.19,-1.43z" fill="#E50D0C" id="svg_2"/>
  <path d="m371.86,446.02c-15.25,-0.66 -26.69,-12.45 -27.94,-27.36c-0.69,-8.16 -0.35,-15.95 3,-23.58c4.21,-9.59 12.79,-15.48 22.97,-15.96c4.78,-0.23 9.62,0.79 15.11,1.32c0,-6.57 0.47,-13.66 -0.15,-20.66c-0.48,-5.51 1.17,-8.2 6.68,-8.63c3.35,-0.26 6.69,-0.81 10.47,-1.29c0,2.06 0,3.69 0,5.32c0,27.47 -0.08,54.95 0.09,82.42c0.02,4.1 -0.63,6.24 -5.33,6.59c-6.77,0.5 -13.47,1.91 -20.22,2.74c-1.35,0.17 -2.82,-0.57 -4.68,-0.91m-10.9,-30.32c-0.72,10.23 9.27,18.4 21.21,16.09c1.13,-0.22 2.68,-2.37 2.71,-3.65c0.22,-9.64 0.14,-19.29 0.09,-28.93c-0.01,-1.04 -0.11,-2.44 -0.76,-3.06c-4.86,-4.63 -18.48,-2.42 -21.03,3.95c-1.84,4.58 -1.87,9.89 -2.22,15.6z" fill="#ffffff" id="svg_4" opacity="1.05"/>
  <path d="m156.26,444.97c-0.75,-1.1 -1.24,-2.17 -1.25,-3.24c-0.04,-26.63 -0.03,-53.26 -0.03,-80.36c11.56,-2.37 23.15,-3.64 34.9,-1.4c4.7,0.89 9.45,1.7 13.99,3.09c8.8,2.71 13.59,9.22 14.93,17.66c0.78,4.96 0.75,10.4 -0.5,15.24c-3.08,11.9 -13.95,17.43 -25.73,18.97c-6.38,0.84 -12.85,0.98 -20.04,1.49c0,7.54 -0.24,15.46 0.09,23.35c0.19,4.28 -1.31,5.67 -5.58,5.29c-3.41,-0.3 -6.86,-0.06 -10.8,-0.09m31.18,-44.97c8.8,-0.7 12.67,-4.17 13.8,-12.37c0.64,-4.71 -3.62,-11.08 -9.37,-12.2c-6.19,-1.21 -12.63,-1.19 -19.08,-1.72c0,9.52 0,18.24 0,27.28c3.62,0 7.02,0.08 10.4,-0.04c1.12,-0.04 2.22,-0.62 4.25,-0.95z" fill="#ffffff" id="svg_5" opacity="1.05"/>
  <path d="m419.22,395.38c7.47,-14.88 20.92,-18.43 33.59,-15.91c15.11,3.01 22.81,14.93 20.98,38.32c-13.37,0 -26.78,0 -40.12,0c-1.89,12.38 12.16,16.94 34.04,11.09c0.76,3.88 1.63,7.72 2.21,11.6c0.11,0.79 -0.62,2.23 -1.33,2.54c-11.7,5.12 -32.82,5.87 -43.5,-4.52c-5.61,-5.46 -8.34,-12.25 -9.29,-20.22c-0.96,-8.01 0.28,-15.31 3.42,-22.9m27.98,-2.38c-7.84,0.02 -11.59,3.13 -14.03,11.79c7.93,0 15.8,0 23.67,0c-0.09,-6.29 -2.2,-9.08 -9.64,-11.79z" fill="#ffffff" id="svg_7" opacity="1.05"/>
  <path d="m646.89,443.4c-13.36,-7.29 -14.22,-26.28 -2.08,-34.36c3.66,-2.44 8.66,-3.28 13.18,-3.9c4.73,-0.64 9.62,-0.14 14.4,-0.14c1.19,-7.05 -2.68,-11.83 -10.05,-11.91c-4.38,-0.04 -8.77,0.81 -13.14,1.3c-1.57,0.18 -3.13,0.49 -4.89,0.78c-0.58,-3.93 -1.22,-7.44 -1.52,-10.97c-0.09,-1.02 0.66,-2.93 1.3,-3.06c10.41,-2.07 20.78,-3.86 31.35,-0.34c10.13,3.38 13.02,10.92 13.38,18.77c0.64,13.64 0.18,27.32 0.18,40.99c0,0.98 0,1.95 0,3.17c-14.11,2.26 -27.96,4.42 -42.11,-0.33m13.74,-25.52c-3.84,0.8 -7.17,2.09 -7.66,6.78c-0.41,3.96 2.02,6.28 5.08,7.16c3.51,1.02 7.38,1.11 11.08,1.03c1.31,-0.02 3.71,-1.72 3.69,-2.62c-0.24,-12.95 3.42,-13.94 -12.19,-12.35z" fill="#ffffff" id="svg_8" opacity="1.05"/>
  <path d="m314,402c0,-7.48 0,-14.45 0,-21.71c5.29,0 10.36,0 16,0c0,4.19 0,8.46 0,12.73c0,14.33 0,28.66 0,43c0,7.98 0.02,8.26 -7.79,8.9c-8.21,0.68 -16.48,1.13 -24.71,0.99c-10.84,-0.19 -19.59,-10.07 -20.31,-19.56c-1.06,-14.02 -0.82,-28.14 -1.22,-42.22c-0.09,-2.92 0.81,-4.1 3.95,-4.2c13.08,-0.44 13.08,-0.54 13.08,12.54c0,7.5 0.27,15.01 -0.06,22.49c-0.69,15.65 7.42,19.21 21.06,15.82c0,-9.35 0,-18.81 0,-28.78z" fill="#ffffff" id="svg_10" opacity="1.05"/>
  <path d="m487,402c0,-6.81 0,-13.12 0,-20.48c9.27,-0.85 18.43,-2.3 27.61,-2.39c17.58,-0.17 26.19,8.68 26.36,26.26c0.13,12.97 0.03,25.95 0.03,39.6c-4.51,0 -8.95,0.27 -13.31,-0.2c-1.03,-0.11 -2.54,-2.68 -2.57,-4.15c-0.23,-9.98 0.05,-19.97 -0.21,-29.95c-0.1,-3.65 -1.07,-7.31 -1.95,-10.89c-0.92,-3.8 -3.8,-5.77 -7.51,-5.74c-15.37,0.13 -12.21,-2.26 -12.41,11.51c-0.19,12.95 -0.04,25.91 -0.04,39.43c-4.48,0 -8.74,-0.01 -13.01,0c-3.35,0.01 -2.99,-2.38 -2.99,-4.55c0,-12.65 0,-25.3 0,-38.45z" fill="#ffffff" id="svg_12" opacity="1.05"/>
  <path d="m573,369.12c0,3.78 0,7.08 0,10.76c7.34,0 14.42,0 21.74,0c0,4.79 0,9.19 0,13.99c-7.06,0 -14.14,0 -21.73,0c0,10.14 -0.35,19.91 0.12,29.65c0.31,6.36 6.23,9.82 12.92,8.45c9.31,-1.9 9.25,-1.88 10.98,6.84c0.59,2.97 0.15,4.25 -3.22,5.4c-8.58,2.94 -17.35,3.97 -25.43,0.31c-8.94,-4.04 -12.18,-12.73 -12.31,-22.14c-0.25,-18.3 0,-36.62 -0.14,-54.93c-0.02,-2.65 0.97,-3.92 3.29,-4.41c2.06,-0.44 4.14,-0.83 6.23,-1.01c9.19,-0.76 7.24,-2.17 7.55,7.09z" fill="#ffffff" id="svg_13" opacity="1.05"/>
  <path d="m721,355.15c0,21.79 0,43.1 0,64.4c0,8.89 1.53,10.91 9.93,13.12c-0.74,4.28 -1.48,8.56 -2.23,12.87c-9.21,1.63 -19.34,-1.54 -22.58,-10.25c-0.55,-1.48 -1.07,-3.1 -1.07,-4.65c-0.07,-25.96 -0.05,-51.93 -0.05,-78.27c5.2,-0.86 10.36,-1.72 16,-2.67c0,2.03 0,3.5 0,5.45z" fill="#ffffff" id="svg_14" opacity="1.05"/>
  <path d="m229,428c0,-15.16 0,-29.81 0,-44.45c11.83,-4.57 23.78,-5.62 36.09,-3.61c3.35,0.55 4.5,2.21 3.85,5.28c-0.67,3.14 -1.55,6.23 -2.2,8.78c-5.41,0 -10.79,0.26 -16.13,-0.08c-4.31,-0.27 -5.8,1 -5.71,5.53c0.27,14.98 0.1,29.96 0.1,45.55c-4.43,0 -8.72,0.24 -12.94,-0.16c-1.11,-0.11 -2.81,-2.11 -2.92,-3.36c-0.36,-4.3 -0.14,-8.65 -0.14,-13.48z" fill="#ffffff" id="svg_15" opacity="1.05"/>
  <path d="m610.33,380c13.67,0 13.67,0 13.67,13.33c0,15.49 -0.15,30.97 0.1,46.46c0.07,4.3 -1.34,5.36 -5.43,5.3c-11.67,-0.19 -11.67,-0.03 -11.67,-11.45c0,-16.32 -0.01,-32.64 0.01,-48.96c0,-2.11 -0.51,-4.6 3.32,-4.68z" fill="#ffffff" id="svg_16" opacity="1.05"/>
  <path d="m624.82,371.67c-8.08,4.89 -14.11,3.36 -16.92,-3.41c-1.88,-4.53 -0.52,-8.24 2.56,-10.84c3.24,-2.74 7.58,-3.77 11.76,-1.34c4.2,2.45 5.45,6.37 4.7,10.93c-0.25,1.51 -1.2,2.91 -2.1,4.66z" fill="#ffffff" id="svg_17"/>
  <path d="m507.89,163.12c0.94,1.23 1.68,2.65 2.43,4.07c-0.3,0.16 -0.6,0.31 -0.9,0.47c-0.55,-1.14 -1.09,-2.28 -1.85,-3.68c-0.1,-0.4 0.02,-0.53 0.32,-0.86z" fill="#FFFFFF" id="svg_18"/>
  <path d="m472.37,164.69c-0.12,-0.88 0.06,-1.42 0.23,-1.97c0.44,0.39 0.88,0.78 1.32,1.17c-0.42,0.37 -0.84,0.75 -1.55,0.8z" fill="#FFFFFF" id="svg_19"/>
  <path d="m417.67,195.05c-1.02,0.04 -1.81,-0.29 -2.6,-0.62c0.09,-0.24 0.18,-0.49 0.27,-0.73c0.86,0.32 1.71,0.65 2.33,1.35z" fill="#FFFFFF" id="svg_20"/>
  <path d="m476.26,168c-0.5,-0.1 -1.18,-0.6 -1.87,-1.1c0.26,-0.25 0.52,-0.5 0.78,-0.75c0.31,0.48 0.61,0.96 1.09,1.85z" fill="#FFFFFF" id="svg_21"/>
  <path d="m656.88,272.9c-0.37,0.41 -0.93,0.64 -1.5,0.87c0.15,-0.33 0.3,-0.67 0.66,-1.2c0.36,-0.08 0.5,0.03 0.84,0.33z" fill="#FFFFFF" id="svg_22"/>
  <path d="m642.35,244.5c0.06,-0.6 0.39,-0.93 0.72,-1.26c-0.14,0.51 -0.29,1.02 -0.72,1.26z" fill="#FFFFFF" id="svg_23"/>
  <path d="m418.23,195.96c0.55,0 0.91,0.33 1.27,0.66c-0.49,-0.11 -0.98,-0.22 -1.27,-0.66z" fill="#FFFFFF" id="svg_24"/>
  <path d="m449.87,183.91c-0.28,-0.4 -0.17,-0.79 -0.07,-1.18c0.15,0.4 0.3,0.79 0.07,1.18z" fill="#FFFFFF" id="svg_25"/>
  <path d="m477.59,169.26c0.04,0.55 -0.23,0.87 -0.5,1.2c0.06,-0.48 0.13,-0.95 0.5,-1.2z" fill="#FFFFFF" id="svg_26"/>
 </g>
</svg>